# Generated from gripper_RL_link_collision.STL
v -0.015232181176543236 -0.02190953679382801 -0.07798803597688675
v -0.03046436235308647 -0.02190953679382801 -0.07798803597688675
v -0.03046436235308647 -0.005758962593972683 -0.08230671286582947
f 1 2 3
v -0.015232181176543236 -0.02190953679382801 -0.07798803597688675
v -0.03046436235308647 -0.005758962593972683 -0.08230671286582947
v -0.015232181176543236 -0.005758962593972683 -0.08230671286582947
f 4 5 6
v 0.0 -0.02190953679382801 -0.07798803597688675
v -0.015232181176543236 -0.02190953679382801 -0.07798803597688675
v -0.015232181176543236 -0.005758962593972683 -0.08230671286582947
f 7 8 9
v 0.0 -0.02190953679382801 -0.07798803597688675
v -0.015232181176543236 -0.005758962593972683 -0.08230671286582947
v 0.0 -0.005758962593972683 -0.08230671286582947
f 10 11 12
v -0.015232181176543236 -0.005758962593972683 -0.08230671286582947
v -0.03046436235308647 -0.005758962593972683 -0.08230671286582947
v -0.03046436235308647 0.003331064712256193 -0.048312701284885406
f 13 14 15
v -0.015232181176543236 -0.005758962593972683 -0.08230671286582947
v 0.0 0.003331064712256193 -0.048312701284885406
v 0.0 -0.005758962593972683 -0.08230671286582947
f 16 17 18
v -0.015232181176543236 0.01242109201848507 -0.01431869063526392
v -0.015232181176543236 -0.005758962593972683 -0.08230671286582947
v -0.03046436235308647 0.003331064712256193 -0.048312701284885406
f 19 20 21
v -0.015232181176543236 -0.005758962593972683 -0.08230671286582947
v -0.015232181176543236 0.01242109201848507 -0.01431869063526392
v 0.0 0.003331064712256193 -0.048312701284885406
f 22 23 24
v -0.015232181176543236 0.01242109201848507 -0.01431869063526392
v 0.0 0.01242109201848507 -0.01431869063526392
v 0.0 0.003331064712256193 -0.048312701284885406
f 25 26 27
v -0.03046436235308647 0.01242109201848507 -0.01431869063526392
v -0.015232181176543236 0.01242109201848507 -0.01431869063526392
v -0.03046436235308647 0.003331064712256193 -0.048312701284885406
f 28 29 30
v -0.015232181176543236 0.01242109201848507 -0.01431869063526392
v -0.03046436235308647 0.01242109201848507 -0.01431869063526392
v -0.03046436235308647 -0.0037294819485396147 -0.010000013746321201
f 31 32 33
v -0.015232181176543236 0.01242109201848507 -0.01431869063526392
v -0.03046436235308647 -0.0037294819485396147 -0.010000013746321201
v -0.015232181176543236 -0.0037294819485396147 -0.010000013746321201
f 34 35 36
v 0.0 0.01242109201848507 -0.01431869063526392
v -0.015232181176543236 0.01242109201848507 -0.01431869063526392
v -0.015232181176543236 -0.0037294819485396147 -0.010000013746321201
f 37 38 39
v 0.0 0.01242109201848507 -0.01431869063526392
v -0.015232181176543236 -0.0037294819485396147 -0.010000013746321201
v 0.0 -0.0037294819485396147 -0.010000013746321201
f 40 41 42
v -0.015232181176543236 -0.0037294819485396147 -0.010000013746321201
v -0.03046436235308647 -0.0037294819485396147 -0.010000013746321201
v -0.03046436235308647 -0.012819509953260422 -0.04399402439594269
f 43 44 45
v -0.015232181176543236 -0.0037294819485396147 -0.010000013746321201
v 0.0 -0.012819509953260422 -0.04399402439594269
v 0.0 -0.0037294819485396147 -0.010000013746321201
f 46 47 48
v -0.015232181176543236 -0.02190953679382801 -0.07798803597688675
v -0.015232181176543236 -0.0037294819485396147 -0.010000013746321201
v -0.03046436235308647 -0.012819509953260422 -0.04399402439594269
f 49 50 51
v -0.015232181176543236 -0.0037294819485396147 -0.010000013746321201
v -0.015232181176543236 -0.02190953679382801 -0.07798803597688675
v 0.0 -0.012819509953260422 -0.04399402439594269
f 52 53 54
v -0.015232181176543236 -0.02190953679382801 -0.07798803597688675
v 0.0 -0.02190953679382801 -0.07798803597688675
v 0.0 -0.012819509953260422 -0.04399402439594269
f 55 56 57
v -0.03046436235308647 -0.02190953679382801 -0.07798803597688675
v -0.015232181176543236 -0.02190953679382801 -0.07798803597688675
v -0.03046436235308647 -0.012819509953260422 -0.04399402439594269
f 58 59 60
v -0.03046436235308647 -0.012819509953260422 -0.04399402439594269
v -0.03046436235308647 0.003331064712256193 -0.048312701284885406
v -0.03046436235308647 -0.005758962593972683 -0.08230671286582947
f 61 62 63
v -0.03046436235308647 -0.012819509953260422 -0.04399402439594269
v -0.03046436235308647 -0.005758962593972683 -0.08230671286582947
v -0.03046436235308647 -0.02190953679382801 -0.07798803597688675
f 64 65 66
v -0.03046436235308647 -0.0037294819485396147 -0.010000013746321201
v -0.03046436235308647 0.01242109201848507 -0.01431869063526392
v -0.03046436235308647 0.003331064712256193 -0.048312701284885406
f 67 68 69
v -0.03046436235308647 -0.0037294819485396147 -0.010000013746321201
v -0.03046436235308647 0.003331064712256193 -0.048312701284885406
v -0.03046436235308647 -0.012819509953260422 -0.04399402439594269
f 70 71 72
v 0.015232181176543236 -0.02190953679382801 -0.07798803597688675
v 0.0 -0.02190953679382801 -0.07798803597688675
v 0.0 -0.005758962593972683 -0.08230671286582947
f 73 74 75
v 0.015232181176543236 -0.02190953679382801 -0.07798803597688675
v 0.0 -0.005758962593972683 -0.08230671286582947
v 0.015232181176543236 -0.005758962593972683 -0.08230671286582947
f 76 77 78
v 0.03046436235308647 -0.02190953679382801 -0.07798803597688675
v 0.015232181176543236 -0.02190953679382801 -0.07798803597688675
v 0.015232181176543236 -0.005758962593972683 -0.08230671286582947
f 79 80 81
v 0.03046436235308647 -0.02190953679382801 -0.07798803597688675
v 0.015232181176543236 -0.005758962593972683 -0.08230671286582947
v 0.03046436235308647 -0.005758962593972683 -0.08230671286582947
f 82 83 84
v 0.015232181176543236 -0.005758962593972683 -0.08230671286582947
v 0.0 -0.005758962593972683 -0.08230671286582947
v 0.0 0.003331064712256193 -0.048312701284885406
f 85 86 87
v 0.015232181176543236 -0.005758962593972683 -0.08230671286582947
v 0.03046436235308647 0.003331064712256193 -0.048312701284885406
v 0.03046436235308647 -0.005758962593972683 -0.08230671286582947
f 88 89 90
v 0.015232181176543236 0.01242109201848507 -0.01431869063526392
v 0.015232181176543236 -0.005758962593972683 -0.08230671286582947
v 0.0 0.003331064712256193 -0.048312701284885406
f 91 92 93
v 0.015232181176543236 -0.005758962593972683 -0.08230671286582947
v 0.015232181176543236 0.01242109201848507 -0.01431869063526392
v 0.03046436235308647 0.003331064712256193 -0.048312701284885406
f 94 95 96
v 0.015232181176543236 0.01242109201848507 -0.01431869063526392
v 0.03046436235308647 0.01242109201848507 -0.01431869063526392
v 0.03046436235308647 0.003331064712256193 -0.048312701284885406
f 97 98 99
v 0.0 0.01242109201848507 -0.01431869063526392
v 0.015232181176543236 0.01242109201848507 -0.01431869063526392
v 0.0 0.003331064712256193 -0.048312701284885406
f 100 101 102
v 0.015232181176543236 0.01242109201848507 -0.01431869063526392
v 0.0 0.01242109201848507 -0.01431869063526392
v 0.0 -0.0037294819485396147 -0.010000013746321201
f 103 104 105
v 0.015232181176543236 0.01242109201848507 -0.01431869063526392
v 0.0 -0.0037294819485396147 -0.010000013746321201
v 0.015232181176543236 -0.0037294819485396147 -0.010000013746321201
f 106 107 108
v 0.03046436235308647 0.01242109201848507 -0.01431869063526392
v 0.015232181176543236 0.01242109201848507 -0.01431869063526392
v 0.015232181176543236 -0.0037294819485396147 -0.010000013746321201
f 109 110 111
v 0.03046436235308647 0.01242109201848507 -0.01431869063526392
v 0.015232181176543236 -0.0037294819485396147 -0.010000013746321201
v 0.03046436235308647 -0.0037294819485396147 -0.010000013746321201
f 112 113 114
v 0.015232181176543236 -0.0037294819485396147 -0.010000013746321201
v 0.0 -0.0037294819485396147 -0.010000013746321201
v 0.0 -0.012819509953260422 -0.04399402439594269
f 115 116 117
v 0.015232181176543236 -0.0037294819485396147 -0.010000013746321201
v 0.03046436235308647 -0.012819509953260422 -0.04399402439594269
v 0.03046436235308647 -0.0037294819485396147 -0.010000013746321201
f 118 119 120
v 0.015232181176543236 -0.02190953679382801 -0.07798803597688675
v 0.015232181176543236 -0.0037294819485396147 -0.010000013746321201
v 0.0 -0.012819509953260422 -0.04399402439594269
f 121 122 123
v 0.015232181176543236 -0.0037294819485396147 -0.010000013746321201
v 0.015232181176543236 -0.02190953679382801 -0.07798803597688675
v 0.03046436235308647 -0.012819509953260422 -0.04399402439594269
f 124 125 126
v 0.015232181176543236 -0.02190953679382801 -0.07798803597688675
v 0.03046436235308647 -0.02190953679382801 -0.07798803597688675
v 0.03046436235308647 -0.012819509953260422 -0.04399402439594269
f 127 128 129
v 0.0 -0.02190953679382801 -0.07798803597688675
v 0.015232181176543236 -0.02190953679382801 -0.07798803597688675
v 0.0 -0.012819509953260422 -0.04399402439594269
f 130 131 132
v 0.03046436235308647 -0.012819509953260422 -0.04399402439594269
v 0.03046436235308647 -0.02190953679382801 -0.07798803597688675
v 0.03046436235308647 -0.005758962593972683 -0.08230671286582947
f 133 134 135
v 0.03046436235308647 -0.012819509953260422 -0.04399402439594269
v 0.03046436235308647 -0.005758962593972683 -0.08230671286582947
v 0.03046436235308647 0.003331064712256193 -0.048312701284885406
f 136 137 138
v 0.03046436235308647 -0.0037294819485396147 -0.010000013746321201
v 0.03046436235308647 -0.012819509953260422 -0.04399402439594269
v 0.03046436235308647 0.003331064712256193 -0.048312701284885406
f 139 140 141
v 0.03046436235308647 -0.0037294819485396147 -0.010000013746321201
v 0.03046436235308647 0.003331064712256193 -0.048312701284885406
v 0.03046436235308647 0.01242109201848507 -0.01431869063526392
f 142 143 144
