# Generated from gripper_LR_link_collision.STL
v -0.01524951308965683 0.01736142672598362 -0.07993412762880325
v -0.03049902617931366 0.01736142672598362 -0.07993412762880325
v -0.03049902617931366 0.009755714796483517 -0.04146707057952881
f 1 2 3
v -0.01524951308965683 0.01736142672598362 -0.07993412762880325
v 0.0 0.009755714796483517 -0.04146707057952881
v 0.0 0.01736142672598362 -0.07993412762880325
f 4 5 6
v 0.0 0.009755714796483517 -0.04146707057952881
v -0.01524951308965683 0.01736142672598362 -0.07993412762880325
v -0.03049902617931366 0.009755714796483517 -0.04146707057952881
f 7 8 9
v 0.0 0.009755714796483517 -0.04146707057952881
v -0.03049902617931366 0.009755714796483517 -0.04146707057952881
v -0.01524951308965683 0.002150001935660839 -0.0030000146944075823
f 10 11 12
v 0.0 0.009755714796483517 -0.04146707057952881
v -0.01524951308965683 0.002150001935660839 -0.0030000146944075823
v 0.0 0.002150001935660839 -0.0030000146944075823
f 13 14 15
v -0.03049902617931366 0.002150001935660839 -0.0030000146944075823
v -0.01524951308965683 0.002150001935660839 -0.0030000146944075823
v -0.03049902617931366 0.009755714796483517 -0.04146707057952881
f 16 17 18
v -0.01524951308965683 0.002150001935660839 -0.0030000146944075823
v -0.03049902617931366 0.002150001935660839 -0.0030000146944075823
v -0.03049902617931366 -0.015107463113963604 -0.0064121633768081665
f 19 20 21
v -0.01524951308965683 0.002150001935660839 -0.0030000146944075823
v -0.03049902617931366 -0.015107463113963604 -0.0064121633768081665
v -0.01524951308965683 -0.015107463113963604 -0.0064121633768081665
f 22 23 24
v 0.0 0.002150001935660839 -0.0030000146944075823
v -0.01524951308965683 0.002150001935660839 -0.0030000146944075823
v -0.01524951308965683 -0.015107463113963604 -0.0064121633768081665
f 25 26 27
v 0.0 0.002150001935660839 -0.0030000146944075823
v -0.01524951308965683 -0.015107463113963604 -0.0064121633768081665
v 0.0 -0.015107463113963604 -0.0064121633768081665
f 28 29 30
v -0.01524951308965683 -0.015107463113963604 -0.0064121633768081665
v -0.03049902617931366 -0.015107463113963604 -0.0064121633768081665
v -0.03049902617931366 -0.007501750718802214 -0.04487922042608261
f 31 32 33
v -0.01524951308965683 -0.015107463113963604 -0.0064121633768081665
v 0.0 -0.007501750718802214 -0.04487922042608261
v 0.0 -0.015107463113963604 -0.0064121633768081665
f 34 35 36
v -0.01524951308965683 0.00010396161087555811 -0.08334627747535706
v -0.01524951308965683 -0.015107463113963604 -0.0064121633768081665
v -0.03049902617931366 -0.007501750718802214 -0.04487922042608261
f 37 38 39
v -0.01524951308965683 -0.015107463113963604 -0.0064121633768081665
v -0.01524951308965683 0.00010396161087555811 -0.08334627747535706
v 0.0 -0.007501750718802214 -0.04487922042608261
f 40 41 42
v -0.01524951308965683 0.00010396161087555811 -0.08334627747535706
v 0.0 0.00010396161087555811 -0.08334627747535706
v 0.0 -0.007501750718802214 -0.04487922042608261
f 43 44 45
v -0.03049902617931366 0.00010396161087555811 -0.08334627747535706
v -0.01524951308965683 0.00010396161087555811 -0.08334627747535706
v -0.03049902617931366 -0.007501750718802214 -0.04487922042608261
f 46 47 48
v -0.01524951308965683 0.00010396161087555811 -0.08334627747535706
v -0.03049902617931366 0.00010396161087555811 -0.08334627747535706
v -0.03049902617931366 0.01736142672598362 -0.07993412762880325
f 49 50 51
v -0.01524951308965683 0.00010396161087555811 -0.08334627747535706
v -0.03049902617931366 0.01736142672598362 -0.07993412762880325
v -0.01524951308965683 0.01736142672598362 -0.07993412762880325
f 52 53 54
v 0.0 0.00010396161087555811 -0.08334627747535706
v -0.01524951308965683 0.00010396161087555811 -0.08334627747535706
v -0.01524951308965683 0.01736142672598362 -0.07993412762880325
f 55 56 57
v 0.0 0.00010396161087555811 -0.08334627747535706
v -0.01524951308965683 0.01736142672598362 -0.07993412762880325
v 0.0 0.01736142672598362 -0.07993412762880325
f 58 59 60
v -0.03049902617931366 -0.007501750718802214 -0.04487922042608261
v -0.03049902617931366 0.009755714796483517 -0.04146707057952881
v -0.03049902617931366 0.01736142672598362 -0.07993412762880325
f 61 62 63
v -0.03049902617931366 -0.007501750718802214 -0.04487922042608261
v -0.03049902617931366 0.01736142672598362 -0.07993412762880325
v -0.03049902617931366 0.00010396161087555811 -0.08334627747535706
f 64 65 66
v -0.03049902617931366 0.009755714796483517 -0.04146707057952881
v -0.03049902617931366 -0.007501750718802214 -0.04487922042608261
v -0.03049902617931366 -0.015107463113963604 -0.0064121633768081665
f 67 68 69
v -0.03049902617931366 0.009755714796483517 -0.04146707057952881
v -0.03049902617931366 -0.015107463113963604 -0.0064121633768081665
v -0.03049902617931366 0.002150001935660839 -0.0030000146944075823
f 70 71 72
v 0.01524951308965683 0.01736142672598362 -0.07993412762880325
v 0.0 0.01736142672598362 -0.07993412762880325
v 0.0 0.009755714796483517 -0.04146707057952881
f 73 74 75
v 0.01524951308965683 0.01736142672598362 -0.07993412762880325
v 0.03049902617931366 0.009755714796483517 -0.04146707057952881
v 0.03049902617931366 0.01736142672598362 -0.07993412762880325
f 76 77 78
v 0.03049902617931366 0.009755714796483517 -0.04146707057952881
v 0.01524951308965683 0.01736142672598362 -0.07993412762880325
v 0.0 0.009755714796483517 -0.04146707057952881
f 79 80 81
v 0.03049902617931366 0.009755714796483517 -0.04146707057952881
v 0.0 0.009755714796483517 -0.04146707057952881
v 0.01524951308965683 0.002150001935660839 -0.0030000146944075823
f 82 83 84
v 0.03049902617931366 0.009755714796483517 -0.04146707057952881
v 0.01524951308965683 0.002150001935660839 -0.0030000146944075823
v 0.03049902617931366 0.002150001935660839 -0.0030000146944075823
f 85 86 87
v 0.0 0.002150001935660839 -0.0030000146944075823
v 0.01524951308965683 0.002150001935660839 -0.0030000146944075823
v 0.0 0.009755714796483517 -0.04146707057952881
f 88 89 90
v 0.01524951308965683 0.002150001935660839 -0.0030000146944075823
v 0.0 0.002150001935660839 -0.0030000146944075823
v 0.0 -0.015107463113963604 -0.0064121633768081665
f 91 92 93
v 0.01524951308965683 0.002150001935660839 -0.0030000146944075823
v 0.0 -0.015107463113963604 -0.0064121633768081665
v 0.01524951308965683 -0.015107463113963604 -0.0064121633768081665
f 94 95 96
v 0.03049902617931366 0.002150001935660839 -0.0030000146944075823
v 0.01524951308965683 0.002150001935660839 -0.0030000146944075823
v 0.01524951308965683 -0.015107463113963604 -0.0064121633768081665
f 97 98 99
v 0.03049902617931366 0.002150001935660839 -0.0030000146944075823
v 0.01524951308965683 -0.015107463113963604 -0.0064121633768081665
v 0.03049902617931366 -0.015107463113963604 -0.0064121633768081665
f 100 101 102
v 0.01524951308965683 -0.015107463113963604 -0.0064121633768081665
v 0.0 -0.015107463113963604 -0.0064121633768081665
v 0.0 -0.007501750718802214 -0.04487922042608261
f 103 104 105
v 0.01524951308965683 -0.015107463113963604 -0.0064121633768081665
v 0.03049902617931366 -0.007501750718802214 -0.04487922042608261
v 0.03049902617931366 -0.015107463113963604 -0.0064121633768081665
f 106 107 108
v 0.01524951308965683 0.00010396161087555811 -0.08334627747535706
v 0.01524951308965683 -0.015107463113963604 -0.0064121633768081665
v 0.0 -0.007501750718802214 -0.04487922042608261
f 109 110 111
v 0.01524951308965683 -0.015107463113963604 -0.0064121633768081665
v 0.01524951308965683 0.00010396161087555811 -0.08334627747535706
v 0.03049902617931366 -0.007501750718802214 -0.04487922042608261
f 112 113 114
v 0.01524951308965683 0.00010396161087555811 -0.08334627747535706
v 0.03049902617931366 0.00010396161087555811 -0.08334627747535706
v 0.03049902617931366 -0.007501750718802214 -0.04487922042608261
f 115 116 117
v 0.0 0.00010396161087555811 -0.08334627747535706
v 0.01524951308965683 0.00010396161087555811 -0.08334627747535706
v 0.0 -0.007501750718802214 -0.04487922042608261
f 118 119 120
v 0.01524951308965683 0.00010396161087555811 -0.08334627747535706
v 0.0 0.00010396161087555811 -0.08334627747535706
v 0.0 0.01736142672598362 -0.07993412762880325
f 121 122 123
v 0.01524951308965683 0.00010396161087555811 -0.08334627747535706
v 0.0 0.01736142672598362 -0.07993412762880325
v 0.01524951308965683 0.01736142672598362 -0.07993412762880325
f 124 125 126
v 0.03049902617931366 0.00010396161087555811 -0.08334627747535706
v 0.01524951308965683 0.00010396161087555811 -0.08334627747535706
v 0.01524951308965683 0.01736142672598362 -0.07993412762880325
f 127 128 129
v 0.03049902617931366 0.00010396161087555811 -0.08334627747535706
v 0.01524951308965683 0.01736142672598362 -0.07993412762880325
v 0.03049902617931366 0.01736142672598362 -0.07993412762880325
f 130 131 132
v 0.03049902617931366 -0.007501750718802214 -0.04487922042608261
v 0.03049902617931366 0.00010396161087555811 -0.08334627747535706
v 0.03049902617931366 0.01736142672598362 -0.07993412762880325
f 133 134 135
v 0.03049902617931366 -0.007501750718802214 -0.04487922042608261
v 0.03049902617931366 0.01736142672598362 -0.07993412762880325
v 0.03049902617931366 0.009755714796483517 -0.04146707057952881
f 136 137 138
v 0.03049902617931366 0.009755714796483517 -0.04146707057952881
v 0.03049902617931366 0.002150001935660839 -0.0030000146944075823
v 0.03049902617931366 -0.015107463113963604 -0.0064121633768081665
f 139 140 141
v 0.03049902617931366 0.009755714796483517 -0.04146707057952881
v 0.03049902617931366 -0.015107463113963604 -0.0064121633768081665
v 0.03049902617931366 -0.007501750718802214 -0.04487922042608261
f 142 143 144
