# Generated from gripper_RR_link_collision.STL
v -0.015286755748093128 0.02156197279691696 -0.0791909396648407
v -0.030573511496186256 0.02156197279691696 -0.0791909396648407
v -0.030573511496186256 0.01509131584316492 -0.05446062237024307
f 1 2 3
v -0.015286755748093128 0.02156197279691696 -0.0791909396648407
v 0.0 0.011855987831950188 -0.04209546372294426
v 0.0 0.02156197279691696 -0.0791909396648407
f 4 5 6
v -0.015286755748093128 0.0021500021684914827 -0.004999988712370396
v -0.015286755748093128 0.02156197279691696 -0.0791909396648407
v -0.030573511496186256 0.01509131584316492 -0.05446062237024307
f 7 8 9
v -0.015286755748093128 0.0021500021684914827 -0.004999988712370396
v -0.030573511496186256 0.01509131584316492 -0.05446062237024307
v -0.030573511496186256 0.00862065888941288 -0.029730305075645447
f 10 11 12
v -0.015286755748093128 0.0021500021684914827 -0.004999988712370396
v -0.030573511496186256 0.00862065888941288 -0.029730305075645447
v -0.030573511496186256 0.0021500021684914827 -0.004999988712370396
f 13 14 15
v 0.0 0.0021500021684914827 -0.004999988712370396
v 0.0 0.011855987831950188 -0.04209546372294426
v -0.015286755748093128 0.0021500021684914827 -0.004999988712370396
f 16 17 18
v -0.015286755748093128 0.0021500021684914827 -0.004999988712370396
v 0.0 0.011855987831950188 -0.04209546372294426
v -0.015286755748093128 0.02156197279691696 -0.0791909396648407
f 19 20 21
v -0.015286755748093128 0.0021500021684914827 -0.004999988712370396
v -0.030573511496186256 0.0021500021684914827 -0.004999988712370396
v -0.030573511496186256 -0.01472464483231306 -0.0094152195379138
f 22 23 24
v -0.015286755748093128 0.0021500021684914827 -0.004999988712370396
v -0.030573511496186256 -0.01472464483231306 -0.0094152195379138
v -0.015286755748093128 -0.01472464483231306 -0.0094152195379138
f 25 26 27
v 0.0 0.0021500021684914827 -0.004999988712370396
v -0.015286755748093128 0.0021500021684914827 -0.004999988712370396
v -0.015286755748093128 -0.01472464483231306 -0.0094152195379138
f 28 29 30
v 0.0 0.0021500021684914827 -0.004999988712370396
v -0.015286755748093128 -0.01472464483231306 -0.0094152195379138
v 0.0 -0.01472464483231306 -0.0094152195379138
f 31 32 33
v -0.015286755748093128 -0.01472464483231306 -0.0094152195379138
v -0.030573511496186256 -0.01472464483231306 -0.0094152195379138
v -0.030573511496186256 -0.00825398787856102 -0.0341455340385437
f 34 35 36
v 0.0 -0.01472464483231306 -0.0094152195379138
v -0.015286755748093128 -0.01472464483231306 -0.0094152195379138
v 0.0 -0.00825398787856102 -0.0341455340385437
f 37 38 39
v -0.030573511496186256 -0.00825398787856102 -0.0341455340385437
v 0.0 -0.00825398787856102 -0.0341455340385437
v -0.015286755748093128 -0.01472464483231306 -0.0094152195379138
f 40 41 42
v 0.0 -0.00825398787856102 -0.0341455340385437
v -0.030573511496186256 -0.00825398787856102 -0.0341455340385437
v -0.030573511496186256 -0.001783330924808979 -0.05887585133314133
f 43 44 45
v 0.0 -0.00825398787856102 -0.0341455340385437
v -0.030573511496186256 -0.001783330924808979 -0.05887585133314133
v 0.0 -0.001783330924808979 -0.05887585133314133
f 46 47 48
v -0.015286755748093128 0.004687326028943062 -0.08360616862773895
v -0.030573511496186256 -0.001783330924808979 -0.05887585133314133
v -0.030573511496186256 0.004687326028943062 -0.08360616862773895
f 49 50 51
v 0.0 0.004687326028943062 -0.08360616862773895
v 0.0 -0.001783330924808979 -0.05887585133314133
v -0.015286755748093128 0.004687326028943062 -0.08360616862773895
f 52 53 54
v -0.030573511496186256 -0.001783330924808979 -0.05887585133314133
v -0.015286755748093128 0.004687326028943062 -0.08360616862773895
v 0.0 -0.001783330924808979 -0.05887585133314133
f 55 56 57
v -0.015286755748093128 0.004687326028943062 -0.08360616862773895
v -0.030573511496186256 0.004687326028943062 -0.08360616862773895
v -0.030573511496186256 0.02156197279691696 -0.0791909396648407
f 58 59 60
v -0.015286755748093128 0.004687326028943062 -0.08360616862773895
v -0.030573511496186256 0.02156197279691696 -0.0791909396648407
v -0.015286755748093128 0.02156197279691696 -0.0791909396648407
f 61 62 63
v 0.0 0.004687326028943062 -0.08360616862773895
v -0.015286755748093128 0.004687326028943062 -0.08360616862773895
v -0.015286755748093128 0.02156197279691696 -0.0791909396648407
f 64 65 66
v 0.0 0.004687326028943062 -0.08360616862773895
v -0.015286755748093128 0.02156197279691696 -0.0791909396648407
v 0.0 0.02156197279691696 -0.0791909396648407
f 67 68 69
v -0.030573511496186256 0.02156197279691696 -0.0791909396648407
v -0.030573511496186256 0.004687326028943062 -0.08360616862773895
v -0.030573511496186256 -0.001783330924808979 -0.05887585133314133
f 70 71 72
v -0.030573511496186256 0.02156197279691696 -0.0791909396648407
v -0.030573511496186256 -0.001783330924808979 -0.05887585133314133
v -0.030573511496186256 0.01509131584316492 -0.05446062237024307
f 73 74 75
v -0.030573511496186256 0.01509131584316492 -0.05446062237024307
v -0.030573511496186256 -0.001783330924808979 -0.05887585133314133
v -0.030573511496186256 -0.00825398787856102 -0.0341455340385437
f 76 77 78
v -0.030573511496186256 0.01509131584316492 -0.05446062237024307
v -0.030573511496186256 -0.00825398787856102 -0.0341455340385437
v -0.030573511496186256 0.00862065888941288 -0.029730305075645447
f 79 80 81
v -0.030573511496186256 0.0021500021684914827 -0.004999988712370396
v -0.030573511496186256 0.00862065888941288 -0.029730305075645447
v -0.030573511496186256 -0.00825398787856102 -0.0341455340385437
f 82 83 84
v -0.030573511496186256 0.0021500021684914827 -0.004999988712370396
v -0.030573511496186256 -0.00825398787856102 -0.0341455340385437
v -0.030573511496186256 -0.01472464483231306 -0.0094152195379138
f 85 86 87
v 0.015286755748093128 0.02156197279691696 -0.0791909396648407
v 0.015286755748093128 0.0021500021684914827 -0.004999988712370396
v 0.030573511496186256 0.00862065888941288 -0.029730305075645447
f 88 89 90
v 0.015286755748093128 0.02156197279691696 -0.0791909396648407
v 0.030573511496186256 0.00862065888941288 -0.029730305075645447
v 0.030573511496186256 0.01509131584316492 -0.05446062237024307
f 91 92 93
v 0.015286755748093128 0.02156197279691696 -0.0791909396648407
v 0.030573511496186256 0.01509131584316492 -0.05446062237024307
v 0.030573511496186256 0.02156197279691696 -0.0791909396648407
f 94 95 96
v 0.0 0.011855987831950188 -0.04209546372294426
v 0.015286755748093128 0.02156197279691696 -0.0791909396648407
v 0.0 0.02156197279691696 -0.0791909396648407
f 97 98 99
v 0.015286755748093128 0.0021500021684914827 -0.004999988712370396
v 0.0 0.011855987831950188 -0.04209546372294426
v 0.0 0.0021500021684914827 -0.004999988712370396
f 100 101 102
v 0.030573511496186256 0.0021500021684914827 -0.004999988712370396
v 0.030573511496186256 0.00862065888941288 -0.029730305075645447
v 0.015286755748093128 0.0021500021684914827 -0.004999988712370396
f 103 104 105
v 0.0 0.011855987831950188 -0.04209546372294426
v 0.015286755748093128 0.0021500021684914827 -0.004999988712370396
v 0.015286755748093128 0.02156197279691696 -0.0791909396648407
f 106 107 108
v 0.015286755748093128 0.0021500021684914827 -0.004999988712370396
v 0.0 0.0021500021684914827 -0.004999988712370396
v 0.0 -0.01472464483231306 -0.0094152195379138
f 109 110 111
v 0.015286755748093128 0.0021500021684914827 -0.004999988712370396
v 0.0 -0.01472464483231306 -0.0094152195379138
v 0.015286755748093128 -0.01472464483231306 -0.0094152195379138
f 112 113 114
v 0.030573511496186256 0.0021500021684914827 -0.004999988712370396
v 0.015286755748093128 0.0021500021684914827 -0.004999988712370396
v 0.015286755748093128 -0.01472464483231306 -0.0094152195379138
f 115 116 117
v 0.030573511496186256 0.0021500021684914827 -0.004999988712370396
v 0.015286755748093128 -0.01472464483231306 -0.0094152195379138
v 0.030573511496186256 -0.01472464483231306 -0.0094152195379138
f 118 119 120
v 0.015286755748093128 -0.01472464483231306 -0.0094152195379138
v 0.0 -0.01472464483231306 -0.0094152195379138
v 0.0 -0.00825398787856102 -0.0341455340385437
f 121 122 123
v 0.030573511496186256 -0.01472464483231306 -0.0094152195379138
v 0.015286755748093128 -0.01472464483231306 -0.0094152195379138
v 0.030573511496186256 -0.00825398787856102 -0.0341455340385437
f 124 125 126
v 0.0 -0.00825398787856102 -0.0341455340385437
v 0.030573511496186256 -0.00825398787856102 -0.0341455340385437
v 0.015286755748093128 -0.01472464483231306 -0.0094152195379138
f 127 128 129
v 0.030573511496186256 -0.00825398787856102 -0.0341455340385437
v 0.0 -0.00825398787856102 -0.0341455340385437
v 0.0 -0.001783330924808979 -0.05887585133314133
f 130 131 132
v 0.030573511496186256 -0.00825398787856102 -0.0341455340385437
v 0.0 -0.001783330924808979 -0.05887585133314133
v 0.030573511496186256 -0.001783330924808979 -0.05887585133314133
f 133 134 135
v 0.015286755748093128 0.004687326028943062 -0.08360616862773895
v 0.0 -0.001783330924808979 -0.05887585133314133
v 0.0 0.004687326028943062 -0.08360616862773895
f 136 137 138
v 0.030573511496186256 0.004687326028943062 -0.08360616862773895
v 0.030573511496186256 -0.001783330924808979 -0.05887585133314133
v 0.015286755748093128 0.004687326028943062 -0.08360616862773895
f 139 140 141
v 0.0 -0.001783330924808979 -0.05887585133314133
v 0.015286755748093128 0.004687326028943062 -0.08360616862773895
v 0.030573511496186256 -0.001783330924808979 -0.05887585133314133
f 142 143 144
v 0.015286755748093128 0.004687326028943062 -0.08360616862773895
v 0.0 0.004687326028943062 -0.08360616862773895
v 0.0 0.02156197279691696 -0.0791909396648407
f 145 146 147
v 0.015286755748093128 0.004687326028943062 -0.08360616862773895
v 0.0 0.02156197279691696 -0.0791909396648407
v 0.015286755748093128 0.02156197279691696 -0.0791909396648407
f 148 149 150
v 0.030573511496186256 0.004687326028943062 -0.08360616862773895
v 0.015286755748093128 0.004687326028943062 -0.08360616862773895
v 0.015286755748093128 0.02156197279691696 -0.0791909396648407
f 151 152 153
v 0.030573511496186256 0.004687326028943062 -0.08360616862773895
v 0.015286755748093128 0.02156197279691696 -0.0791909396648407
v 0.030573511496186256 0.02156197279691696 -0.0791909396648407
f 154 155 156
v 0.030573511496186256 0.02156197279691696 -0.0791909396648407
v 0.030573511496186256 0.01509131584316492 -0.05446062237024307
v 0.030573511496186256 -0.001783330924808979 -0.05887585133314133
f 157 158 159
v 0.030573511496186256 0.02156197279691696 -0.0791909396648407
v 0.030573511496186256 -0.001783330924808979 -0.05887585133314133
v 0.030573511496186256 0.004687326028943062 -0.08360616862773895
f 160 161 162
v 0.030573511496186256 0.01509131584316492 -0.05446062237024307
v 0.030573511496186256 0.00862065888941288 -0.029730305075645447
v 0.030573511496186256 -0.00825398787856102 -0.0341455340385437
f 163 164 165
v 0.030573511496186256 0.01509131584316492 -0.05446062237024307
v 0.030573511496186256 -0.00825398787856102 -0.0341455340385437
v 0.030573511496186256 -0.001783330924808979 -0.05887585133314133
f 166 167 168
v 0.030573511496186256 0.0021500021684914827 -0.004999988712370396
v 0.030573511496186256 -0.01472464483231306 -0.0094152195379138
v 0.030573511496186256 -0.00825398787856102 -0.0341455340385437
f 169 170 171
v 0.030573511496186256 0.0021500021684914827 -0.004999988712370396
v 0.030573511496186256 -0.00825398787856102 -0.0341455340385437
v 0.030573511496186256 0.00862065888941288 -0.029730305075645447
f 172 173 174
