# Generated from gripper_LL_link_collision.STL
v 0.015484314411878586 -0.0009341585100628436 0.004000014625489712
v 0.03096862882375717 -0.0009341585100628436 0.004000014625489712
v 0.03096862882375717 0.017578646540641785 0.00021674759045708925
f 1 2 3
v 0.015484314411878586 -0.0009341585100628436 0.004000014625489712
v 0.03096862882375717 0.017578646540641785 0.00021674759045708925
v 0.015484314411878586 0.017578646540641785 0.00021674759045708925
f 4 5 6
v 0.0 -0.0009341585100628436 0.004000014625489712
v 0.015484314411878586 -0.0009341585100628436 0.004000014625489712
v 0.015484314411878586 0.017578646540641785 0.00021674759045708925
f 7 8 9
v 0.0 -0.0009341585100628436 0.004000014625489712
v 0.015484314411878586 0.017578646540641785 0.00021674759045708925
v 0.0 0.017578646540641785 0.00021674759045708925
f 10 11 12
v 0.015484314411878586 0.017578646540641785 0.00021674759045708925
v 0.03096862882375717 0.017578646540641785 0.00021674759045708925
v 0.03096862882375717 0.011824621818959713 -0.027939636260271072
f 13 14 15
v 0.015484314411878586 0.017578646540641785 0.00021674759045708925
v 0.0 0.008947609923779964 -0.04201782867312431
v 0.0 0.017578646540641785 0.00021674759045708925
f 16 17 18
v 0.03096862882375717 0.006070597562938929 -0.056096021085977554
v 0.015484314411878586 0.017578646540641785 0.00021674759045708925
v 0.03096862882375717 0.011824621818959713 -0.027939636260271072
f 19 20 21
v 0.015484314411878586 0.00031657348154112697 -0.08425240963697433
v 0.03096862882375717 0.006070597562938929 -0.056096021085977554
v 0.03096862882375717 0.00031657348154112697 -0.08425240963697433
f 22 23 24
v 0.0 0.00031657348154112697 -0.08425240963697433
v 0.0 0.008947609923779964 -0.04201782867312431
v 0.015484314411878586 0.00031657348154112697 -0.08425240963697433
f 25 26 27
v 0.015484314411878586 0.00031657348154112697 -0.08425240963697433
v 0.0 0.008947609923779964 -0.04201782867312431
v 0.015484314411878586 0.017578646540641785 0.00021674759045708925
f 28 29 30
v 0.03096862882375717 0.006070597562938929 -0.056096021085977554
v 0.015484314411878586 0.00031657348154112697 -0.08425240963697433
v 0.015484314411878586 0.017578646540641785 0.00021674759045708925
f 31 32 33
v 0.015484314411878586 0.00031657348154112697 -0.08425240963697433
v 0.03096862882375717 0.00031657348154112697 -0.08425240963697433
v 0.03096862882375717 -0.01819623075425625 -0.08046913892030716
f 34 35 36
v 0.015484314411878586 0.00031657348154112697 -0.08425240963697433
v 0.03096862882375717 -0.01819623075425625 -0.08046913892030716
v 0.015484314411878586 -0.01819623075425625 -0.08046913892030716
f 37 38 39
v 0.0 0.00031657348154112697 -0.08425240963697433
v 0.015484314411878586 0.00031657348154112697 -0.08425240963697433
v 0.015484314411878586 -0.01819623075425625 -0.08046913892030716
f 40 41 42
v 0.0 0.00031657348154112697 -0.08425240963697433
v 0.015484314411878586 -0.01819623075425625 -0.08046913892030716
v 0.0 -0.01819623075425625 -0.08046913892030716
f 43 44 45
v 0.015484314411878586 -0.01819623075425625 -0.08046913892030716
v 0.03096862882375717 -0.01819623075425625 -0.08046913892030716
v 0.03096862882375717 -0.012442206963896751 -0.05231275409460068
f 46 47 48
v 0.015484314411878586 -0.01819623075425625 -0.08046913892030716
v 0.0 -0.009565195068717003 -0.038234561681747437
v 0.0 -0.01819623075425625 -0.08046913892030716
f 49 50 51
v 0.03096862882375717 -0.006688182707875967 -0.024156369268894196
v 0.015484314411878586 -0.01819623075425625 -0.08046913892030716
v 0.03096862882375717 -0.012442206963896751 -0.05231275409460068
f 52 53 54
v 0.015484314411878586 -0.0009341585100628436 0.004000014625489712
v 0.03096862882375717 -0.006688182707875967 -0.024156369268894196
v 0.03096862882375717 -0.0009341585100628436 0.004000014625489712
f 55 56 57
v 0.0 -0.0009341585100628436 0.004000014625489712
v 0.0 -0.009565195068717003 -0.038234561681747437
v 0.015484314411878586 -0.0009341585100628436 0.004000014625489712
f 58 59 60
v 0.015484314411878586 -0.0009341585100628436 0.004000014625489712
v 0.0 -0.009565195068717003 -0.038234561681747437
v 0.015484314411878586 -0.01819623075425625 -0.08046913892030716
f 61 62 63
v 0.03096862882375717 -0.006688182707875967 -0.024156369268894196
v 0.015484314411878586 -0.0009341585100628436 0.004000014625489712
v 0.015484314411878586 -0.01819623075425625 -0.08046913892030716
f 64 65 66
v 0.03096862882375717 -0.006688182707875967 -0.024156369268894196
v 0.03096862882375717 0.011824621818959713 -0.027939636260271072
v 0.03096862882375717 0.017578646540641785 0.00021674759045708925
f 67 68 69
v 0.03096862882375717 -0.006688182707875967 -0.024156369268894196
v 0.03096862882375717 0.017578646540641785 0.00021674759045708925
v 0.03096862882375717 -0.0009341585100628436 0.004000014625489712
f 70 71 72
v 0.03096862882375717 -0.01819623075425625 -0.08046913892030716
v 0.03096862882375717 0.00031657348154112697 -0.08425240963697433
v 0.03096862882375717 0.006070597562938929 -0.056096021085977554
f 73 74 75
v 0.03096862882375717 -0.01819623075425625 -0.08046913892030716
v 0.03096862882375717 0.006070597562938929 -0.056096021085977554
v 0.03096862882375717 -0.012442206963896751 -0.05231275409460068
f 76 77 78
v 0.03096862882375717 -0.012442206963896751 -0.05231275409460068
v 0.03096862882375717 0.006070597562938929 -0.056096021085977554
v 0.03096862882375717 0.011824621818959713 -0.027939636260271072
f 79 80 81
v 0.03096862882375717 -0.012442206963896751 -0.05231275409460068
v 0.03096862882375717 0.011824621818959713 -0.027939636260271072
v 0.03096862882375717 -0.006688182707875967 -0.024156369268894196
f 82 83 84
v -0.015484314411878586 -0.0009341585100628436 0.004000014625489712
v 0.0 -0.0009341585100628436 0.004000014625489712
v 0.0 0.017578646540641785 0.00021674759045708925
f 85 86 87
v -0.015484314411878586 -0.0009341585100628436 0.004000014625489712
v 0.0 0.017578646540641785 0.00021674759045708925
v -0.015484314411878586 0.017578646540641785 0.00021674759045708925
f 88 89 90
v -0.03096862882375717 -0.0009341585100628436 0.004000014625489712
v -0.015484314411878586 -0.0009341585100628436 0.004000014625489712
v -0.015484314411878586 0.017578646540641785 0.00021674759045708925
f 91 92 93
v -0.03096862882375717 -0.0009341585100628436 0.004000014625489712
v -0.015484314411878586 0.017578646540641785 0.00021674759045708925
v -0.03096862882375717 0.017578646540641785 0.00021674759045708925
f 94 95 96
v -0.03096862882375717 0.006070597562938929 -0.056096021085977554
v -0.03096862882375717 0.011824621818959713 -0.027939636260271072
v -0.015484314411878586 0.017578646540641785 0.00021674759045708925
f 97 98 99
v -0.015484314411878586 0.017578646540641785 0.00021674759045708925
v -0.03096862882375717 0.011824621818959713 -0.027939636260271072
v -0.03096862882375717 0.017578646540641785 0.00021674759045708925
f 100 101 102
v 0.0 0.008947609923779964 -0.04201782867312431
v -0.015484314411878586 0.017578646540641785 0.00021674759045708925
v 0.0 0.017578646540641785 0.00021674759045708925
f 103 104 105
v -0.015484314411878586 0.00031657348154112697 -0.08425240963697433
v 0.0 0.008947609923779964 -0.04201782867312431
v 0.0 0.00031657348154112697 -0.08425240963697433
f 106 107 108
v -0.03096862882375717 0.00031657348154112697 -0.08425240963697433
v -0.03096862882375717 0.006070597562938929 -0.056096021085977554
v -0.015484314411878586 0.00031657348154112697 -0.08425240963697433
f 109 110 111
v -0.015484314411878586 0.00031657348154112697 -0.08425240963697433
v -0.03096862882375717 0.006070597562938929 -0.056096021085977554
v -0.015484314411878586 0.017578646540641785 0.00021674759045708925
f 112 113 114
v 0.0 0.008947609923779964 -0.04201782867312431
v -0.015484314411878586 0.00031657348154112697 -0.08425240963697433
v -0.015484314411878586 0.017578646540641785 0.00021674759045708925
f 115 116 117
v -0.015484314411878586 0.00031657348154112697 -0.08425240963697433
v 0.0 0.00031657348154112697 -0.08425240963697433
v 0.0 -0.01819623075425625 -0.08046913892030716
f 118 119 120
v -0.015484314411878586 0.00031657348154112697 -0.08425240963697433
v 0.0 -0.01819623075425625 -0.08046913892030716
v -0.015484314411878586 -0.01819623075425625 -0.08046913892030716
f 121 122 123
v -0.03096862882375717 0.00031657348154112697 -0.08425240963697433
v -0.015484314411878586 0.00031657348154112697 -0.08425240963697433
v -0.015484314411878586 -0.01819623075425625 -0.08046913892030716
f 124 125 126
v -0.03096862882375717 0.00031657348154112697 -0.08425240963697433
v -0.015484314411878586 -0.01819623075425625 -0.08046913892030716
v -0.03096862882375717 -0.01819623075425625 -0.08046913892030716
f 127 128 129
v -0.015484314411878586 -0.01819623075425625 -0.08046913892030716
v -0.015484314411878586 -0.0009341585100628436 0.004000014625489712
v -0.03096862882375717 -0.006688182707875967 -0.024156369268894196
f 130 131 132
v -0.015484314411878586 -0.01819623075425625 -0.08046913892030716
v -0.03096862882375717 -0.006688182707875967 -0.024156369268894196
v -0.03096862882375717 -0.012442206963896751 -0.05231275409460068
f 133 134 135
v -0.015484314411878586 -0.01819623075425625 -0.08046913892030716
v -0.03096862882375717 -0.012442206963896751 -0.05231275409460068
v -0.03096862882375717 -0.01819623075425625 -0.08046913892030716
f 136 137 138
v 0.0 -0.009565195068717003 -0.038234561681747437
v -0.015484314411878586 -0.01819623075425625 -0.08046913892030716
v 0.0 -0.01819623075425625 -0.08046913892030716
f 139 140 141
v -0.015484314411878586 -0.0009341585100628436 0.004000014625489712
v 0.0 -0.009565195068717003 -0.038234561681747437
v 0.0 -0.0009341585100628436 0.004000014625489712
f 142 143 144
v -0.03096862882375717 -0.0009341585100628436 0.004000014625489712
v -0.03096862882375717 -0.006688182707875967 -0.024156369268894196
v -0.015484314411878586 -0.0009341585100628436 0.004000014625489712
f 145 146 147
v 0.0 -0.009565195068717003 -0.038234561681747437
v -0.015484314411878586 -0.0009341585100628436 0.004000014625489712
v -0.015484314411878586 -0.01819623075425625 -0.08046913892030716
f 148 149 150
v -0.03096862882375717 -0.006688182707875967 -0.024156369268894196
v -0.03096862882375717 -0.0009341585100628436 0.004000014625489712
v -0.03096862882375717 0.017578646540641785 0.00021674759045708925
f 151 152 153
v -0.03096862882375717 -0.006688182707875967 -0.024156369268894196
v -0.03096862882375717 0.017578646540641785 0.00021674759045708925
v -0.03096862882375717 0.011824621818959713 -0.027939636260271072
f 154 155 156
v -0.03096862882375717 -0.01819623075425625 -0.08046913892030716
v -0.03096862882375717 -0.012442206963896751 -0.05231275409460068
v -0.03096862882375717 0.006070597562938929 -0.056096021085977554
f 157 158 159
v -0.03096862882375717 -0.01819623075425625 -0.08046913892030716
v -0.03096862882375717 0.006070597562938929 -0.056096021085977554
v -0.03096862882375717 0.00031657348154112697 -0.08425240963697433
f 160 161 162
v -0.03096862882375717 -0.012442206963896751 -0.05231275409460068
v -0.03096862882375717 -0.006688182707875967 -0.024156369268894196
v -0.03096862882375717 0.011824621818959713 -0.027939636260271072
f 163 164 165
v -0.03096862882375717 -0.012442206963896751 -0.05231275409460068
v -0.03096862882375717 0.011824621818959713 -0.027939636260271072
v -0.03096862882375717 0.006070597562938929 -0.056096021085977554
f 166 167 168
