# Generated from L_link6_collision.STL
v 0.02926144190132618 -0.012649234384298325 0.014187381602823734
v 0.02926144190132618 -0.026281345635652542 0.014187381602823734
v 0.03138638660311699 -0.026281345635652542 0.008324825204908848
f 1 2 3
v 0.0323367603123188 0.0009828777983784676 0.0024076413828879595
v 0.03138638660311699 -0.026281345635652542 0.008324825204908848
v 0.032361794263124466 -0.026281345635652542 0.0019944808445870876
f 4 5 6
v 0.030532753095030785 0.0009828777983784676 -0.010645938105881214
v 0.03205391764640808 -0.026281345635652542 -0.004556899890303612
v 0.030417751520872116 -0.026281345635652542 -0.010964186862111092
f 7 8 9
v 0.030532753095030785 0.0009828777983784676 -0.010645938105881214
v 0.030417751520872116 -0.026281345635652542 -0.010964186862111092
v 0.027521779760718346 -0.026281345635652542 -0.016901494935154915
f 10 11 12
v 0.0323367603123188 0.0009828777983784676 0.0024076413828879595
v 0.032361794263124466 -0.026281345635652542 0.0019944808445870876
v 0.03205391764640808 -0.026281345635652542 -0.004556899890303612
f 13 14 15
v 0.023692553862929344 0.0009828777983784676 -0.021909242495894432
v 0.02358172833919525 -0.026281345635652542 -0.02202761359512806
v 0.018915414810180664 -0.026281345635652542 -0.026121415197849274
f 16 17 18
v 0.01387189794331789 0.0009828777983784676 -0.029104698449373245
v 0.018915414810180664 -0.026281345635652542 -0.026121415197849274
v 0.01387189794331789 -0.026281345635652542 -0.029104698449373245
f 19 20 21
v 0.0020921574905514717 0.0009828777983784676 -0.03218001872301102
v 0.008009341545403004 -0.026281345635652542 -0.031229645013809204
v 0.0016789969522505999 -0.026281345635652542 -0.03220505267381668
f 22 23 24
v -0.010961421765387058 0.0009828777983784676 -0.030376011505723
v -0.004872384015470743 -0.026281345635652542 -0.031897176057100296
v -0.011279670521616936 -0.026281345635652542 -0.03026100993156433
f 25 26 27
v 0.0020921574905514717 0.0009828777983784676 -0.03218001872301102
v 0.0016789969522505999 -0.026281345635652542 -0.03220505267381668
v -0.004872384015470743 -0.026281345635652542 -0.031897176057100296
f 28 29 30
v 0.01387189794331789 0.0009828777983784676 -0.029104698449373245
v 0.01387189794331789 -0.026281345635652542 -0.029104698449373245
v 0.008009341545403004 -0.026281345635652542 -0.031229645013809204
f 31 32 33
v 0.023692553862929344 0.0009828777983784676 -0.021909242495894432
v 0.027521779760718346 -0.026281345635652542 -0.016901494935154915
v 0.02358172833919525 -0.026281345635652542 -0.02202761359512806
f 34 35 36
v 0.02926144190132618 -0.012649234384298325 0.014187381602823734
v 0.03138638660311699 -0.026281345635652542 0.008324825204908848
v 0.02926144190132618 0.0009828777983784676 0.014187381602823734
f 37 38 39
v 0.02926144190132618 0.0009828777983784676 0.014187381602823734
v 0.03138638660311699 -0.026281345635652542 0.008324825204908848
v 0.0323367603123188 0.0009828777983784676 0.0024076413828879595
f 40 41 42
v 0.030532753095030785 0.0009828777983784676 -0.010645938105881214
v 0.0323367603123188 0.0009828777983784676 0.0024076413828879595
v 0.03205391764640808 -0.026281345635652542 -0.004556899890303612
f 43 44 45
v 0.018915414810180664 -0.026281345635652542 -0.026121415197849274
v 0.01387189794331789 0.0009828777983784676 -0.029104698449373245
v 0.023692553862929344 0.0009828777983784676 -0.021909242495894432
f 46 47 48
v 0.030532753095030785 0.0009828777983784676 -0.010645938105881214
v 0.027521779760718346 -0.026281345635652542 -0.016901494935154915
v 0.023692553862929344 0.0009828777983784676 -0.021909242495894432
f 49 50 51
v -0.022224726155400276 0.0009828777983784676 -0.02353581041097641
v -0.01721697859466076 -0.026281345635652542 -0.02736503817141056
v -0.022343097254633904 -0.026281345635652542 -0.023424986749887466
f 52 53 54
v -0.022224726155400276 0.0009828777983784676 -0.02353581041097641
v -0.022343097254633904 -0.026281345635652542 -0.023424986749887466
v -0.026436898857355118 -0.026281345635652542 -0.01875867322087288
f 55 56 57
v 0.0020921574905514717 0.0009828777983784676 -0.03218001872301102
v -0.004872384015470743 -0.026281345635652542 -0.031897176057100296
v -0.010961421765387058 0.0009828777983784676 -0.030376011505723
f 58 59 60
v -0.02942018397152424 -0.026281345635652542 -0.01371515542268753
v -0.02942018397152424 0.0009828777983784676 -0.01371515542268753
v -0.026436898857355118 -0.026281345635652542 -0.01875867322087288
f 61 62 63
v -0.022224726155400276 0.0009828777983784676 -0.02353581041097641
v -0.010961421765387058 0.0009828777983784676 -0.030376011505723
v -0.011279670521616936 -0.026281345635652542 -0.03026100993156433
f 64 65 66
v -0.022224726155400276 0.0009828777983784676 -0.02353581041097641
v -0.011279670521616936 -0.026281345635652542 -0.03026100993156433
v -0.01721697859466076 -0.026281345635652542 -0.02736503817141056
f 67 68 69
v -0.022224726155400276 0.0009828777983784676 -0.02353581041097641
v -0.026436898857355118 -0.026281345635652542 -0.01875867322087288
v -0.02942018397152424 0.0009828777983784676 -0.01371515542268753
f 70 71 72
v 0.008009341545403004 -0.026281345635652542 -0.031229645013809204
v 0.0020921574905514717 0.0009828777983784676 -0.03218001872301102
v 0.01387189794331789 0.0009828777983784676 -0.029104698449373245
f 73 74 75
v -0.03249550238251686 0.0009828777983784676 -0.001935415668413043
v -0.03154512867331505 -0.026281345635652542 -0.007852599956095219
v -0.032520536333322525 -0.026281345635652542 -0.0015222550136968493
f 76 77 78
v -0.03249550238251686 0.0009828777983784676 -0.001935415668413043
v -0.032520536333322525 -0.026281345635652542 -0.0015222550136968493
v -0.03221265971660614 -0.026281345635652542 0.0050291260704398155
f 79 80 81
v -0.030691495165228844 0.0009828777983784676 0.011118163354694843
v -0.030576493591070175 -0.026281345635652542 0.011436413042247295
v -0.027680521830916405 -0.026281345635652542 0.017373720183968544
f 82 83 84
v -0.023851295933127403 0.0009828777983784676 0.02238146960735321
v -0.027680521830916405 -0.026281345635652542 0.017373720183968544
v -0.02374047040939331 -0.026281345635652542 0.022499840706586838
f 85 86 87
v -0.030691495165228844 0.0009828777983784676 0.011118163354694843
v -0.03221265971660614 -0.026281345635652542 0.0050291260704398155
v -0.030576493591070175 -0.026281345635652542 0.011436413042247295
f 88 89 90
v -0.01403064001351595 0.0009828777983784676 0.029576925560832024
v -0.019074156880378723 -0.026281345635652542 0.026593640446662903
v -0.01403064001351595 -0.026281345635652542 0.029576925560832024
f 91 92 93
v -0.01403064001351595 0.0009828777983784676 0.029576925560832024
v -0.01403064001351595 -0.026281345635652542 0.029576925560832024
v -0.008168083615601063 -0.026281345635652542 0.03170187026262283
f 94 95 96
v -0.002250899560749531 0.0009828777983784676 0.032652243971824646
v -0.001837739022448659 -0.026281345635652542 0.03267727792263031
v 0.004713641945272684 -0.026281345635652542 0.032369401305913925
f 97 98 99
v 0.010802679695189 0.0009828777983784676 0.03084823675453663
v 0.011120928451418877 -0.026281345635652542 0.03073323518037796
v 0.0170582365244627 -0.026281345635652542 0.02783726342022419
f 100 101 102
v 0.010802679695189 0.0009828777983784676 0.03084823675453663
v 0.004713641945272684 -0.026281345635652542 0.032369401305913925
v 0.011120928451418877 -0.026281345635652542 0.03073323518037796
f 103 104 105
v -0.002250899560749531 0.0009828777983784676 0.032652243971824646
v -0.008168083615601063 -0.026281345635652542 0.03170187026262283
v -0.001837739022448659 -0.026281345635652542 0.03267727792263031
f 106 107 108
v -0.023851295933127403 0.0009828777983784676 0.02238146960735321
v -0.02374047040939331 -0.026281345635652542 0.022499840706586838
v -0.019074156880378723 -0.026281345635652542 0.026593640446662903
f 109 110 111
v -0.03249550238251686 0.0009828777983784676 -0.001935415668413043
v -0.02942018397152424 0.0009828777983784676 -0.01371515542268753
v -0.02942018397152424 -0.026281345635652542 -0.01371515542268753
f 112 113 114
v -0.03249550238251686 0.0009828777983784676 -0.001935415668413043
v -0.02942018397152424 -0.026281345635652542 -0.01371515542268753
v -0.03154512867331505 -0.026281345635652542 -0.007852599956095219
f 115 116 117
v -0.030691495165228844 0.0009828777983784676 0.011118163354694843
v -0.03249550238251686 0.0009828777983784676 -0.001935415668413043
v -0.03221265971660614 -0.026281345635652542 0.0050291260704398155
f 118 119 120
v -0.01403064001351595 0.0009828777983784676 0.029576925560832024
v -0.023851295933127403 0.0009828777983784676 0.02238146960735321
v -0.019074156880378723 -0.026281345635652542 0.026593640446662903
f 121 122 123
v -0.002250899560749531 0.0009828777983784676 0.032652243971824646
v -0.01403064001351595 0.0009828777983784676 0.029576925560832024
v -0.008168083615601063 -0.026281345635652542 0.03170187026262283
f 124 125 126
v -0.030691495165228844 0.0009828777983784676 0.011118163354694843
v -0.027680521830916405 -0.026281345635652542 0.017373720183968544
v -0.023851295933127403 0.0009828777983784676 0.02238146960735321
f 127 128 129
v 0.022065984085202217 0.0009828777983784676 0.02400803752243519
v 0.022184357047080994 -0.026281345635652542 0.023897211998701096
v 0.02627815678715706 -0.026281345635652542 0.019230898469686508
f 130 131 132
v 0.02926144190132618 -0.012649234384298325 0.014187381602823734
v 0.02627815678715706 -0.026281345635652542 0.019230898469686508
v 0.02926144190132618 -0.026281345635652542 0.014187381602823734
f 133 134 135
v 0.010802679695189 0.0009828777983784676 0.03084823675453663
v 0.0170582365244627 -0.026281345635652542 0.02783726342022419
v 0.022065984085202217 0.0009828777983784676 0.02400803752243519
f 136 137 138
v 0.02627815678715706 -0.026281345635652542 0.019230898469686508
v 0.02926144190132618 0.0009828777983784676 0.014187381602823734
v 0.022065984085202217 0.0009828777983784676 0.02400803752243519
f 139 140 141
v 0.02627815678715706 -0.026281345635652542 0.019230898469686508
v 0.02926144190132618 -0.012649234384298325 0.014187381602823734
v 0.02926144190132618 0.0009828777983784676 0.014187381602823734
f 142 143 144
v 0.004713641945272684 -0.026281345635652542 0.032369401305913925
v 0.010802679695189 0.0009828777983784676 0.03084823675453663
v -0.002250899560749531 0.0009828777983784676 0.032652243971824646
f 145 146 147
v 0.022065984085202217 0.0009828777983784676 0.02400803752243519
v 0.0170582365244627 -0.026281345635652542 0.02783726342022419
v 0.022184357047080994 -0.026281345635652542 0.023897211998701096
f 148 149 150
v -7.937099871924147e-05 -0.026281345635652542 0.00023611292999703437
v 0.00689626345410943 -0.026281345635652542 -0.014434292912483215
v 0.021566668525338173 -0.026281345635652542 -0.007458658888936043
f 151 152 153
v -7.937099871924147e-05 -0.026281345635652542 0.00023611292999703437
v 0.021566668525338173 -0.026281345635652542 -0.007458658888936043
v 0.014591035433113575 -0.026281345635652542 0.007211747113615274
f 154 155 156
v -0.007055005058646202 -0.026281345635652542 0.014906519092619419
v -7.937099871924147e-05 -0.026281345635652542 0.00023611292999703437
v 0.014591035433113575 -0.026281345635652542 0.007211747113615274
f 157 158 159
v -0.007055005058646202 -0.026281345635652542 0.014906519092619419
v 0.014591035433113575 -0.026281345635652542 0.007211747113615274
v 0.007615400943905115 -0.026281345635652542 0.021882154047489166
f 160 161 162
v -0.014749777503311634 -0.026281345635652542 -0.006739521399140358
v -0.007774143014103174 -0.026281345635652542 -0.021409926936030388
v 0.00689626345410943 -0.026281345635652542 -0.014434292912483215
f 163 164 165
v -0.014749777503311634 -0.026281345635652542 -0.006739521399140358
v 0.00689626345410943 -0.026281345635652542 -0.014434292912483215
v -7.937099871924147e-05 -0.026281345635652542 0.00023611292999703437
f 166 167 168
v -0.021725410595536232 -0.026281345635652542 0.007930885069072247
v -0.014749777503311634 -0.026281345635652542 -0.006739521399140358
v -7.937099871924147e-05 -0.026281345635652542 0.00023611292999703437
f 169 170 171
v -0.021725410595536232 -0.026281345635652542 0.007930885069072247
v -7.937099871924147e-05 -0.026281345635652542 0.00023611292999703437
v -0.007055005058646202 -0.026281345635652542 0.014906519092619419
f 172 173 174
v 0.03205391764640808 -0.026281345635652542 -0.004556899890303612
v 0.032361794263124466 -0.026281345635652542 0.0019944808445870876
v 0.021566668525338173 -0.026281345635652542 -0.007458658888936043
f 175 176 177
v 0.03138638660311699 -0.026281345635652542 0.008324825204908848
v 0.014591035433113575 -0.026281345635652542 0.007211747113615274
v 0.032361794263124466 -0.026281345635652542 0.0019944808445870876
f 178 179 180
v 0.03138638660311699 -0.026281345635652542 0.008324825204908848
v 0.02926144190132618 -0.026281345635652542 0.014187381602823734
v 0.014591035433113575 -0.026281345635652542 0.007211747113615274
f 181 182 183
v 0.030417751520872116 -0.026281345635652542 -0.010964186862111092
v 0.03205391764640808 -0.026281345635652542 -0.004556899890303612
v 0.021566668525338173 -0.026281345635652542 -0.007458658888936043
f 184 185 186
v 0.00689626345410943 -0.026281345635652542 -0.014434292912483215
v 0.018915414810180664 -0.026281345635652542 -0.026121415197849274
v 0.02358172833919525 -0.026281345635652542 -0.02202761359512806
f 187 188 189
v 0.027521779760718346 -0.026281345635652542 -0.016901494935154915
v 0.021566668525338173 -0.026281345635652542 -0.007458658888936043
v 0.02358172833919525 -0.026281345635652542 -0.02202761359512806
f 190 191 192
v 0.00689626345410943 -0.026281345635652542 -0.014434292912483215
v 0.02358172833919525 -0.026281345635652542 -0.02202761359512806
v 0.021566668525338173 -0.026281345635652542 -0.007458658888936043
f 193 194 195
v 0.032361794263124466 -0.026281345635652542 0.0019944808445870876
v 0.014591035433113575 -0.026281345635652542 0.007211747113615274
v 0.021566668525338173 -0.026281345635652542 -0.007458658888936043
f 196 197 198
v 0.030417751520872116 -0.026281345635652542 -0.010964186862111092
v 0.021566668525338173 -0.026281345635652542 -0.007458658888936043
v 0.027521779760718346 -0.026281345635652542 -0.016901494935154915
f 199 200 201
v 0.00689626345410943 -0.026281345635652542 -0.014434292912483215
v 0.01387189794331789 -0.026281345635652542 -0.029104698449373245
v 0.018915414810180664 -0.026281345635652542 -0.026121415197849274
f 202 203 204
v 0.007615400943905115 -0.026281345635652542 0.021882154047489166
v 0.022184357047080994 -0.026281345635652542 0.023897211998701096
v 0.0170582365244627 -0.026281345635652542 0.02783726342022419
f 205 206 207
v 0.011120928451418877 -0.026281345635652542 0.03073323518037796
v 0.007615400943905115 -0.026281345635652542 0.021882154047489166
v 0.0170582365244627 -0.026281345635652542 0.02783726342022419
f 208 209 210
v 0.007615400943905115 -0.026281345635652542 0.021882154047489166
v 0.011120928451418877 -0.026281345635652542 0.03073323518037796
v 0.004713641945272684 -0.026281345635652542 0.032369401305913925
f 211 212 213
v 0.022184357047080994 -0.026281345635652542 0.023897211998701096
v 0.014591035433113575 -0.026281345635652542 0.007211747113615274
v 0.02627815678715706 -0.026281345635652542 0.019230898469686508
f 214 215 216
v 0.022184357047080994 -0.026281345635652542 0.023897211998701096
v 0.007615400943905115 -0.026281345635652542 0.021882154047489166
v 0.014591035433113575 -0.026281345635652542 0.007211747113615274
f 217 218 219
v -0.008168083615601063 -0.026281345635652542 0.03170187026262283
v -0.007055005058646202 -0.026281345635652542 0.014906519092619419
v -0.001837739022448659 -0.026281345635652542 0.03267727792263031
f 220 221 222
v -0.007055005058646202 -0.026281345635652542 0.014906519092619419
v -0.008168083615601063 -0.026281345635652542 0.03170187026262283
v -0.01403064001351595 -0.026281345635652542 0.029576925560832024
f 223 224 225
v 0.007615400943905115 -0.026281345635652542 0.021882154047489166
v -0.001837739022448659 -0.026281345635652542 0.03267727792263031
v -0.007055005058646202 -0.026281345635652542 0.014906519092619419
f 226 227 228
v 0.004713641945272684 -0.026281345635652542 0.032369401305913925
v -0.001837739022448659 -0.026281345635652542 0.03267727792263031
v 0.007615400943905115 -0.026281345635652542 0.021882154047489166
f 229 230 231
v 0.014591035433113575 -0.026281345635652542 0.007211747113615274
v 0.02926144190132618 -0.026281345635652542 0.014187381602823734
v 0.02627815678715706 -0.026281345635652542 0.019230898469686508
f 232 233 234
v 0.008009341545403004 -0.026281345635652542 -0.031229645013809204
v 0.00689626345410943 -0.026281345635652542 -0.014434292912483215
v 0.0016789969522505999 -0.026281345635652542 -0.03220505267381668
f 235 236 237
v -0.004872384015470743 -0.026281345635652542 -0.031897176057100296
v 0.0016789969522505999 -0.026281345635652542 -0.03220505267381668
v -0.007774143014103174 -0.026281345635652542 -0.021409926936030388
f 238 239 240
v -0.022343097254633904 -0.026281345635652542 -0.023424986749887466
v -0.007774143014103174 -0.026281345635652542 -0.021409926936030388
v -0.014749777503311634 -0.026281345635652542 -0.006739521399140358
f 241 242 243
v -0.007774143014103174 -0.026281345635652542 -0.021409926936030388
v 0.0016789969522505999 -0.026281345635652542 -0.03220505267381668
v 0.00689626345410943 -0.026281345635652542 -0.014434292912483215
f 244 245 246
v -0.01721697859466076 -0.026281345635652542 -0.02736503817141056
v -0.011279670521616936 -0.026281345635652542 -0.03026100993156433
v -0.007774143014103174 -0.026281345635652542 -0.021409926936030388
f 247 248 249
v -0.022343097254633904 -0.026281345635652542 -0.023424986749887466
v -0.014749777503311634 -0.026281345635652542 -0.006739521399140358
v -0.026436898857355118 -0.026281345635652542 -0.01875867322087288
f 250 251 252
v -0.022343097254633904 -0.026281345635652542 -0.023424986749887466
v -0.01721697859466076 -0.026281345635652542 -0.02736503817141056
v -0.007774143014103174 -0.026281345635652542 -0.021409926936030388
f 253 254 255
v -0.004872384015470743 -0.026281345635652542 -0.031897176057100296
v -0.007774143014103174 -0.026281345635652542 -0.021409926936030388
v -0.011279670521616936 -0.026281345635652542 -0.03026100993156433
f 256 257 258
v -0.02942018397152424 -0.026281345635652542 -0.01371515542268753
v -0.026436898857355118 -0.026281345635652542 -0.01875867322087288
v -0.014749777503311634 -0.026281345635652542 -0.006739521399140358
f 259 260 261
v -0.02374047040939331 -0.026281345635652542 0.022499840706586838
v -0.021725410595536232 -0.026281345635652542 0.007930885069072247
v -0.007055005058646202 -0.026281345635652542 0.014906519092619419
f 262 263 264
v -0.019074156880378723 -0.026281345635652542 0.026593640446662903
v -0.02374047040939331 -0.026281345635652542 0.022499840706586838
v -0.007055005058646202 -0.026281345635652542 0.014906519092619419
f 265 266 267
v -0.027680521830916405 -0.026281345635652542 0.017373720183968544
v -0.021725410595536232 -0.026281345635652542 0.007930885069072247
v -0.02374047040939331 -0.026281345635652542 0.022499840706586838
f 268 269 270
v -0.027680521830916405 -0.026281345635652542 0.017373720183968544
v -0.030576493591070175 -0.026281345635652542 0.011436413042247295
v -0.021725410595536232 -0.026281345635652542 0.007930885069072247
f 271 272 273
v -0.01403064001351595 -0.026281345635652542 0.029576925560832024
v -0.019074156880378723 -0.026281345635652542 0.026593640446662903
v -0.007055005058646202 -0.026281345635652542 0.014906519092619419
f 274 275 276
v -0.021725410595536232 -0.026281345635652542 0.007930885069072247
v -0.032520536333322525 -0.026281345635652542 -0.0015222550136968493
v -0.014749777503311634 -0.026281345635652542 -0.006739521399140358
f 277 278 279
v -0.021725410595536232 -0.026281345635652542 0.007930885069072247
v -0.030576493591070175 -0.026281345635652542 0.011436413042247295
v -0.03221265971660614 -0.026281345635652542 0.0050291260704398155
f 280 281 282
v -0.03221265971660614 -0.026281345635652542 0.0050291260704398155
v -0.032520536333322525 -0.026281345635652542 -0.0015222550136968493
v -0.021725410595536232 -0.026281345635652542 0.007930885069072247
f 283 284 285
v -0.032520536333322525 -0.026281345635652542 -0.0015222550136968493
v -0.03154512867331505 -0.026281345635652542 -0.007852599956095219
v -0.014749777503311634 -0.026281345635652542 -0.006739521399140358
f 286 287 288
v -0.014749777503311634 -0.026281345635652542 -0.006739521399140358
v -0.03154512867331505 -0.026281345635652542 -0.007852599956095219
v -0.02942018397152424 -0.026281345635652542 -0.01371515542268753
f 289 290 291
v 0.008009341545403004 -0.026281345635652542 -0.031229645013809204
v 0.01387189794331789 -0.026281345635652542 -0.029104698449373245
v 0.00689626345410943 -0.026281345635652542 -0.014434292912483215
f 292 293 294
v 0.03138638660311699 0.028247101232409477 0.008324825204908848
v 0.02926144190132618 0.014614989049732685 0.014187381602823734
v 0.02926144190132618 0.0009828777983784676 0.014187381602823734
f 295 296 297
v 0.0323367603123188 0.0009828777983784676 0.0024076413828879595
v 0.03138638660311699 0.028247101232409477 0.008324825204908848
v 0.02926144190132618 0.0009828777983784676 0.014187381602823734
f 298 299 300
v 0.02926144190132618 0.014614989049732685 0.014187381602823734
v 0.03138638660311699 0.028247101232409477 0.008324825204908848
v 0.02926144190132618 0.028247101232409477 0.014187381602823734
f 301 302 303
v 0.0323367603123188 0.0009828777983784676 0.0024076413828879595
v 0.032361794263124466 0.028247101232409477 0.0019944808445870876
v 0.03138638660311699 0.028247101232409477 0.008324825204908848
f 304 305 306
v 0.03205391764640808 0.028247101232409477 -0.004556899890303612
v 0.032361794263124466 0.028247101232409477 0.0019944808445870876
v 0.0323367603123188 0.0009828777983784676 0.0024076413828879595
f 307 308 309
v 0.030532753095030785 0.0009828777983784676 -0.010645938105881214
v 0.03205391764640808 0.028247101232409477 -0.004556899890303612
v 0.0323367603123188 0.0009828777983784676 0.0024076413828879595
f 310 311 312
v 0.030532753095030785 0.0009828777983784676 -0.010645938105881214
v 0.023692553862929344 0.0009828777983784676 -0.021909242495894432
v 0.027521779760718346 0.028247101232409477 -0.016901494935154915
f 313 314 315
v 0.030532753095030785 0.0009828777983784676 -0.010645938105881214
v 0.027521779760718346 0.028247101232409477 -0.016901494935154915
v 0.030417751520872116 0.028247101232409477 -0.010964186862111092
f 316 317 318
v 0.01387189794331789 0.0009828777983784676 -0.029104698449373245
v 0.0020921574905514717 0.0009828777983784676 -0.03218001872301102
v 0.008009341545403004 0.028247101232409477 -0.031229645013809204
f 319 320 321
v 0.01387189794331789 0.0009828777983784676 -0.029104698449373245
v 0.008009341545403004 0.028247101232409477 -0.031229645013809204
v 0.01387189794331789 0.028247101232409477 -0.029104698449373245
f 322 323 324
v -0.010961421765387058 0.0009828777983784676 -0.030376011505723
v -0.022224726155400276 0.0009828777983784676 -0.02353581041097641
v -0.01721697859466076 0.028247101232409477 -0.02736503817141056
f 325 326 327
v -0.010961421765387058 0.0009828777983784676 -0.030376011505723
v -0.01721697859466076 0.028247101232409477 -0.02736503817141056
v -0.011279670521616936 0.028247101232409477 -0.03026100993156433
f 328 329 330
v 0.0020921574905514717 0.0009828777983784676 -0.03218001872301102
v -0.010961421765387058 0.0009828777983784676 -0.030376011505723
v -0.004872384015470743 0.028247101232409477 -0.031897176057100296
f 331 332 333
v 0.0020921574905514717 0.0009828777983784676 -0.03218001872301102
v -0.004872384015470743 0.028247101232409477 -0.031897176057100296
v 0.0016789969522505999 0.028247101232409477 -0.03220505267381668
f 334 335 336
v 0.023692553862929344 0.0009828777983784676 -0.021909242495894432
v 0.01387189794331789 0.0009828777983784676 -0.029104698449373245
v 0.018915414810180664 0.028247101232409477 -0.026121415197849274
f 337 338 339
v 0.023692553862929344 0.0009828777983784676 -0.021909242495894432
v 0.018915414810180664 0.028247101232409477 -0.026121415197849274
v 0.02358172833919525 0.028247101232409477 -0.02202761359512806
f 340 341 342
v -0.022224726155400276 0.0009828777983784676 -0.02353581041097641
v -0.02942018397152424 0.0009828777983784676 -0.01371515542268753
v -0.026436898857355118 0.028247101232409477 -0.01875867322087288
f 343 344 345
v -0.022224726155400276 0.0009828777983784676 -0.02353581041097641
v -0.026436898857355118 0.028247101232409477 -0.01875867322087288
v -0.022343097254633904 0.028247101232409477 -0.023424986749887466
f 346 347 348
v 0.030532753095030785 0.0009828777983784676 -0.010645938105881214
v 0.030417751520872116 0.028247101232409477 -0.010964186862111092
v 0.03205391764640808 0.028247101232409477 -0.004556899890303612
f 349 350 351
v 0.01387189794331789 0.0009828777983784676 -0.029104698449373245
v 0.01387189794331789 0.028247101232409477 -0.029104698449373245
v 0.018915414810180664 0.028247101232409477 -0.026121415197849274
f 352 353 354
v 0.02358172833919525 0.028247101232409477 -0.02202761359512806
v 0.027521779760718346 0.028247101232409477 -0.016901494935154915
v 0.023692553862929344 0.0009828777983784676 -0.021909242495894432
f 355 356 357
v 0.0020921574905514717 0.0009828777983784676 -0.03218001872301102
v 0.0016789969522505999 0.028247101232409477 -0.03220505267381668
v 0.008009341545403004 0.028247101232409477 -0.031229645013809204
f 358 359 360
v -0.022343097254633904 0.028247101232409477 -0.023424986749887466
v -0.01721697859466076 0.028247101232409477 -0.02736503817141056
v -0.022224726155400276 0.0009828777983784676 -0.02353581041097641
f 361 362 363
v -0.011279670521616936 0.028247101232409477 -0.03026100993156433
v -0.004872384015470743 0.028247101232409477 -0.031897176057100296
v -0.010961421765387058 0.0009828777983784676 -0.030376011505723
f 364 365 366
v -0.026436898857355118 0.028247101232409477 -0.01875867322087288
v -0.02942018397152424 0.0009828777983784676 -0.01371515542268753
v -0.02942018397152424 0.028247101232409477 -0.01371515542268753
f 367 368 369
v -0.03154512867331505 0.028247101232409477 -0.007852599956095219
v -0.02942018397152424 0.028247101232409477 -0.01371515542268753
v -0.02942018397152424 0.0009828777983784676 -0.01371515542268753
f 370 371 372
v -0.03249550238251686 0.0009828777983784676 -0.001935415668413043
v -0.03154512867331505 0.028247101232409477 -0.007852599956095219
v -0.02942018397152424 0.0009828777983784676 -0.01371515542268753
f 373 374 375
v -0.03249550238251686 0.0009828777983784676 -0.001935415668413043
v -0.030691495165228844 0.0009828777983784676 0.011118163354694843
v -0.03221265971660614 0.028247101232409477 0.0050291260704398155
f 376 377 378
v -0.03249550238251686 0.0009828777983784676 -0.001935415668413043
v -0.03221265971660614 0.028247101232409477 0.0050291260704398155
v -0.032520536333322525 0.028247101232409477 -0.0015222550136968493
f 379 380 381
v -0.03249550238251686 0.0009828777983784676 -0.001935415668413043
v -0.032520536333322525 0.028247101232409477 -0.0015222550136968493
v -0.03154512867331505 0.028247101232409477 -0.007852599956095219
f 382 383 384
v -0.030576493591070175 0.028247101232409477 0.011436413042247295
v -0.03221265971660614 0.028247101232409477 0.0050291260704398155
v -0.030691495165228844 0.0009828777983784676 0.011118163354694843
f 385 386 387
v -0.023851295933127403 0.0009828777983784676 0.02238146960735321
v -0.01403064001351595 0.0009828777983784676 0.029576925560832024
v -0.019074156880378723 0.028247101232409477 0.026593640446662903
f 388 389 390
v -0.023851295933127403 0.0009828777983784676 0.02238146960735321
v -0.019074156880378723 0.028247101232409477 0.026593640446662903
v -0.02374047040939331 0.028247101232409477 0.022499840706586838
f 391 392 393
v -0.01403064001351595 0.0009828777983784676 0.029576925560832024
v -0.002250899560749531 0.0009828777983784676 0.032652243971824646
v -0.008168083615601063 0.028247101232409477 0.03170187026262283
f 394 395 396
v -0.01403064001351595 0.0009828777983784676 0.029576925560832024
v -0.008168083615601063 0.028247101232409477 0.03170187026262283
v -0.01403064001351595 0.028247101232409477 0.029576925560832024
f 397 398 399
v 0.010802679695189 0.0009828777983784676 0.03084823675453663
v 0.022065984085202217 0.0009828777983784676 0.02400803752243519
v 0.0170582365244627 0.028247101232409477 0.02783726342022419
f 400 401 402
v 0.010802679695189 0.0009828777983784676 0.03084823675453663
v 0.0170582365244627 0.028247101232409477 0.02783726342022419
v 0.011120928451418877 0.028247101232409477 0.03073323518037796
f 403 404 405
v 0.022065984085202217 0.0009828777983784676 0.02400803752243519
v 0.02926144190132618 0.0009828777983784676 0.014187381602823734
v 0.02627815678715706 0.028247101232409477 0.019230898469686508
f 406 407 408
v 0.022065984085202217 0.0009828777983784676 0.02400803752243519
v 0.02627815678715706 0.028247101232409477 0.019230898469686508
v 0.022184357047080994 0.028247101232409477 0.023897211998701096
f 409 410 411
v -0.002250899560749531 0.0009828777983784676 0.032652243971824646
v 0.010802679695189 0.0009828777983784676 0.03084823675453663
v 0.004713641945272684 0.028247101232409477 0.032369401305913925
f 412 413 414
v -0.002250899560749531 0.0009828777983784676 0.032652243971824646
v 0.004713641945272684 0.028247101232409477 0.032369401305913925
v -0.001837739022448659 0.028247101232409477 0.03267727792263031
f 415 416 417
v -0.030691495165228844 0.0009828777983784676 0.011118163354694843
v -0.023851295933127403 0.0009828777983784676 0.02238146960735321
v -0.027680521830916405 0.028247101232409477 0.017373720183968544
f 418 419 420
v -0.030691495165228844 0.0009828777983784676 0.011118163354694843
v -0.027680521830916405 0.028247101232409477 0.017373720183968544
v -0.030576493591070175 0.028247101232409477 0.011436413042247295
f 421 422 423
v 0.02926144190132618 0.014614989049732685 0.014187381602823734
v 0.02627815678715706 0.028247101232409477 0.019230898469686508
v 0.02926144190132618 0.0009828777983784676 0.014187381602823734
f 424 425 426
v -0.023851295933127403 0.0009828777983784676 0.02238146960735321
v -0.02374047040939331 0.028247101232409477 0.022499840706586838
v -0.027680521830916405 0.028247101232409477 0.017373720183968544
f 427 428 429
v -0.01403064001351595 0.0009828777983784676 0.029576925560832024
v -0.01403064001351595 0.028247101232409477 0.029576925560832024
v -0.019074156880378723 0.028247101232409477 0.026593640446662903
f 430 431 432
v 0.010802679695189 0.0009828777983784676 0.03084823675453663
v 0.011120928451418877 0.028247101232409477 0.03073323518037796
v 0.004713641945272684 0.028247101232409477 0.032369401305913925
f 433 434 435
v 0.022065984085202217 0.0009828777983784676 0.02400803752243519
v 0.022184357047080994 0.028247101232409477 0.023897211998701096
v 0.0170582365244627 0.028247101232409477 0.02783726342022419
f 436 437 438
v 0.02926144190132618 0.014614989049732685 0.014187381602823734
v 0.02926144190132618 0.028247101232409477 0.014187381602823734
v 0.02627815678715706 0.028247101232409477 0.019230898469686508
f 439 440 441
v -0.001837739022448659 0.028247101232409477 0.03267727792263031
v -0.008168083615601063 0.028247101232409477 0.03170187026262283
v -0.002250899560749531 0.0009828777983784676 0.032652243971824646
f 442 443 444
v -7.937099871924147e-05 0.028247101232409477 0.00023611292999703437
v 0.014591035433113575 0.028247101232409477 0.007211747113615274
v 0.021566668525338173 0.028247101232409477 -0.007458658888936043
f 445 446 447
v -7.937099871924147e-05 0.028247101232409477 0.00023611292999703437
v 0.021566668525338173 0.028247101232409477 -0.007458658888936043
v 0.00689626345410943 0.028247101232409477 -0.014434292912483215
f 448 449 450
v -0.007055005058646202 0.028247101232409477 0.014906519092619419
v 0.007615400943905115 0.028247101232409477 0.021882154047489166
v 0.014591035433113575 0.028247101232409477 0.007211747113615274
f 451 452 453
v -0.007055005058646202 0.028247101232409477 0.014906519092619419
v 0.014591035433113575 0.028247101232409477 0.007211747113615274
v -7.937099871924147e-05 0.028247101232409477 0.00023611292999703437
f 454 455 456
v -0.014749777503311634 0.028247101232409477 -0.006739521399140358
v -7.937099871924147e-05 0.028247101232409477 0.00023611292999703437
v 0.00689626345410943 0.028247101232409477 -0.014434292912483215
f 457 458 459
v -0.014749777503311634 0.028247101232409477 -0.006739521399140358
v 0.00689626345410943 0.028247101232409477 -0.014434292912483215
v -0.007774143014103174 0.028247101232409477 -0.021409926936030388
f 460 461 462
v -0.021725410595536232 0.028247101232409477 0.007930885069072247
v -0.007055005058646202 0.028247101232409477 0.014906519092619419
v -7.937099871924147e-05 0.028247101232409477 0.00023611292999703437
f 463 464 465
v -0.021725410595536232 0.028247101232409477 0.007930885069072247
v -7.937099871924147e-05 0.028247101232409477 0.00023611292999703437
v -0.014749777503311634 0.028247101232409477 -0.006739521399140358
f 466 467 468
v 0.03205391764640808 0.028247101232409477 -0.004556899890303612
v 0.021566668525338173 0.028247101232409477 -0.007458658888936043
v 0.032361794263124466 0.028247101232409477 0.0019944808445870876
f 469 470 471
v 0.03138638660311699 0.028247101232409477 0.008324825204908848
v 0.032361794263124466 0.028247101232409477 0.0019944808445870876
v 0.014591035433113575 0.028247101232409477 0.007211747113615274
f 472 473 474
v 0.03138638660311699 0.028247101232409477 0.008324825204908848
v 0.014591035433113575 0.028247101232409477 0.007211747113615274
v 0.02926144190132618 0.028247101232409477 0.014187381602823734
f 475 476 477
v 0.030417751520872116 0.028247101232409477 -0.010964186862111092
v 0.021566668525338173 0.028247101232409477 -0.007458658888936043
v 0.03205391764640808 0.028247101232409477 -0.004556899890303612
f 478 479 480
v 0.00689626345410943 0.028247101232409477 -0.014434292912483215
v 0.02358172833919525 0.028247101232409477 -0.02202761359512806
v 0.018915414810180664 0.028247101232409477 -0.026121415197849274
f 481 482 483
v 0.027521779760718346 0.028247101232409477 -0.016901494935154915
v 0.02358172833919525 0.028247101232409477 -0.02202761359512806
v 0.021566668525338173 0.028247101232409477 -0.007458658888936043
f 484 485 486
v 0.00689626345410943 0.028247101232409477 -0.014434292912483215
v 0.021566668525338173 0.028247101232409477 -0.007458658888936043
v 0.02358172833919525 0.028247101232409477 -0.02202761359512806
f 487 488 489
v 0.032361794263124466 0.028247101232409477 0.0019944808445870876
v 0.021566668525338173 0.028247101232409477 -0.007458658888936043
v 0.014591035433113575 0.028247101232409477 0.007211747113615274
f 490 491 492
v 0.030417751520872116 0.028247101232409477 -0.010964186862111092
v 0.027521779760718346 0.028247101232409477 -0.016901494935154915
v 0.021566668525338173 0.028247101232409477 -0.007458658888936043
f 493 494 495
v 0.00689626345410943 0.028247101232409477 -0.014434292912483215
v 0.018915414810180664 0.028247101232409477 -0.026121415197849274
v 0.01387189794331789 0.028247101232409477 -0.029104698449373245
f 496 497 498
v 0.007615400943905115 0.028247101232409477 0.021882154047489166
v 0.0170582365244627 0.028247101232409477 0.02783726342022419
v 0.022184357047080994 0.028247101232409477 0.023897211998701096
f 499 500 501
v 0.011120928451418877 0.028247101232409477 0.03073323518037796
v 0.0170582365244627 0.028247101232409477 0.02783726342022419
v 0.007615400943905115 0.028247101232409477 0.021882154047489166
f 502 503 504
v 0.007615400943905115 0.028247101232409477 0.021882154047489166
v 0.004713641945272684 0.028247101232409477 0.032369401305913925
v 0.011120928451418877 0.028247101232409477 0.03073323518037796
f 505 506 507
v 0.022184357047080994 0.028247101232409477 0.023897211998701096
v 0.02627815678715706 0.028247101232409477 0.019230898469686508
v 0.014591035433113575 0.028247101232409477 0.007211747113615274
f 508 509 510
v 0.022184357047080994 0.028247101232409477 0.023897211998701096
v 0.014591035433113575 0.028247101232409477 0.007211747113615274
v 0.007615400943905115 0.028247101232409477 0.021882154047489166
f 511 512 513
v -0.008168083615601063 0.028247101232409477 0.03170187026262283
v -0.001837739022448659 0.028247101232409477 0.03267727792263031
v -0.007055005058646202 0.028247101232409477 0.014906519092619419
f 514 515 516
v -0.007055005058646202 0.028247101232409477 0.014906519092619419
v -0.01403064001351595 0.028247101232409477 0.029576925560832024
v -0.008168083615601063 0.028247101232409477 0.03170187026262283
f 517 518 519
v 0.007615400943905115 0.028247101232409477 0.021882154047489166
v -0.007055005058646202 0.028247101232409477 0.014906519092619419
v -0.001837739022448659 0.028247101232409477 0.03267727792263031
f 520 521 522
v 0.004713641945272684 0.028247101232409477 0.032369401305913925
v 0.007615400943905115 0.028247101232409477 0.021882154047489166
v -0.001837739022448659 0.028247101232409477 0.03267727792263031
f 523 524 525
v 0.014591035433113575 0.028247101232409477 0.007211747113615274
v 0.02627815678715706 0.028247101232409477 0.019230898469686508
v 0.02926144190132618 0.028247101232409477 0.014187381602823734
f 526 527 528
v 0.008009341545403004 0.028247101232409477 -0.031229645013809204
v 0.0016789969522505999 0.028247101232409477 -0.03220505267381668
v 0.00689626345410943 0.028247101232409477 -0.014434292912483215
f 529 530 531
v -0.004872384015470743 0.028247101232409477 -0.031897176057100296
v -0.007774143014103174 0.028247101232409477 -0.021409926936030388
v 0.0016789969522505999 0.028247101232409477 -0.03220505267381668
f 532 533 534
v -0.022343097254633904 0.028247101232409477 -0.023424986749887466
v -0.014749777503311634 0.028247101232409477 -0.006739521399140358
v -0.007774143014103174 0.028247101232409477 -0.021409926936030388
f 535 536 537
v -0.007774143014103174 0.028247101232409477 -0.021409926936030388
v 0.00689626345410943 0.028247101232409477 -0.014434292912483215
v 0.0016789969522505999 0.028247101232409477 -0.03220505267381668
f 538 539 540
v -0.01721697859466076 0.028247101232409477 -0.02736503817141056
v -0.007774143014103174 0.028247101232409477 -0.021409926936030388
v -0.011279670521616936 0.028247101232409477 -0.03026100993156433
f 541 542 543
v -0.022343097254633904 0.028247101232409477 -0.023424986749887466
v -0.026436898857355118 0.028247101232409477 -0.01875867322087288
v -0.014749777503311634 0.028247101232409477 -0.006739521399140358
f 544 545 546
v -0.022343097254633904 0.028247101232409477 -0.023424986749887466
v -0.007774143014103174 0.028247101232409477 -0.021409926936030388
v -0.01721697859466076 0.028247101232409477 -0.02736503817141056
f 547 548 549
v -0.004872384015470743 0.028247101232409477 -0.031897176057100296
v -0.011279670521616936 0.028247101232409477 -0.03026100993156433
v -0.007774143014103174 0.028247101232409477 -0.021409926936030388
f 550 551 552
v -0.02942018397152424 0.028247101232409477 -0.01371515542268753
v -0.014749777503311634 0.028247101232409477 -0.006739521399140358
v -0.026436898857355118 0.028247101232409477 -0.01875867322087288
f 553 554 555
v -0.02374047040939331 0.028247101232409477 0.022499840706586838
v -0.007055005058646202 0.028247101232409477 0.014906519092619419
v -0.021725410595536232 0.028247101232409477 0.007930885069072247
f 556 557 558
v -0.019074156880378723 0.028247101232409477 0.026593640446662903
v -0.007055005058646202 0.028247101232409477 0.014906519092619419
v -0.02374047040939331 0.028247101232409477 0.022499840706586838
f 559 560 561
v -0.027680521830916405 0.028247101232409477 0.017373720183968544
v -0.02374047040939331 0.028247101232409477 0.022499840706586838
v -0.021725410595536232 0.028247101232409477 0.007930885069072247
f 562 563 564
v -0.027680521830916405 0.028247101232409477 0.017373720183968544
v -0.021725410595536232 0.028247101232409477 0.007930885069072247
v -0.030576493591070175 0.028247101232409477 0.011436413042247295
f 565 566 567
v -0.01403064001351595 0.028247101232409477 0.029576925560832024
v -0.007055005058646202 0.028247101232409477 0.014906519092619419
v -0.019074156880378723 0.028247101232409477 0.026593640446662903
f 568 569 570
v -0.021725410595536232 0.028247101232409477 0.007930885069072247
v -0.014749777503311634 0.028247101232409477 -0.006739521399140358
v -0.032520536333322525 0.028247101232409477 -0.0015222550136968493
f 571 572 573
v -0.021725410595536232 0.028247101232409477 0.007930885069072247
v -0.03221265971660614 0.028247101232409477 0.0050291260704398155
v -0.030576493591070175 0.028247101232409477 0.011436413042247295
f 574 575 576
v -0.03221265971660614 0.028247101232409477 0.0050291260704398155
v -0.021725410595536232 0.028247101232409477 0.007930885069072247
v -0.032520536333322525 0.028247101232409477 -0.0015222550136968493
f 577 578 579
v -0.032520536333322525 0.028247101232409477 -0.0015222550136968493
v -0.014749777503311634 0.028247101232409477 -0.006739521399140358
v -0.03154512867331505 0.028247101232409477 -0.007852599956095219
f 580 581 582
v -0.014749777503311634 0.028247101232409477 -0.006739521399140358
v -0.02942018397152424 0.028247101232409477 -0.01371515542268753
v -0.03154512867331505 0.028247101232409477 -0.007852599956095219
f 583 584 585
v 0.008009341545403004 0.028247101232409477 -0.031229645013809204
v 0.00689626345410943 0.028247101232409477 -0.014434292912483215
v 0.01387189794331789 0.028247101232409477 -0.029104698449373245
f 586 587 588
