# Generated from openarm_base_link_collision.STL
v 0.0 -0.029999999329447746 0.14428503811359406
v -0.014999999664723873 -0.029999999329447746 0.14428503811359406
v -0.014999999664723873 -0.029999999329447746 0.07214251905679703
f 1 2 3
v 0.0 -0.029999999329447746 0.14428503811359406
v -0.014999999664723873 -0.029999999329447746 0.07214251905679703
v 0.0 -0.029999999329447746 0.07214251905679703
f 4 5 6
v 0.014999999664723873 -0.029999999329447746 0.14428503811359406
v 0.0 -0.029999999329447746 0.14428503811359406
v 0.0 -0.029999999329447746 0.07214251905679703
f 7 8 9
v 0.014999999664723873 -0.029999999329447746 0.14428503811359406
v 0.0 -0.029999999329447746 0.07214251905679703
v 0.014999999664723873 -0.029999999329447746 0.07214251905679703
f 10 11 12
v 0.014999999664723873 -0.029999999329447746 0.5049976706504822
v 0.0 -0.029999999329447746 0.5049976706504822
v 0.0 -0.029999999329447746 0.43285512924194336
f 13 14 15
v 0.014999999664723873 -0.029999999329447746 0.5049976706504822
v 0.0 -0.029999999329447746 0.43285512924194336
v 0.014999999664723873 -0.029999999329447746 0.43285512924194336
f 16 17 18
v 0.0 -0.029999999329447746 0.5049976706504822
v -0.014999999664723873 -0.029999999329447746 0.5049976706504822
v -0.014999999664723873 -0.029999999329447746 0.43285512924194336
f 19 20 21
v 0.0 -0.029999999329447746 0.5049976706504822
v -0.014999999664723873 -0.029999999329447746 0.43285512924194336
v 0.0 -0.029999999329447746 0.43285512924194336
f 22 23 24
v -0.029999999329447746 -0.029999999329447746 0.19238005578517914
v -0.029999999329447746 -0.029999999329447746 -5.242566381014058e-09
v -0.014999999664723873 -0.029999999329447746 0.07214251905679703
f 25 26 27
v -0.029999999329447746 -0.029999999329447746 0.19238005578517914
v -0.014999999664723873 -0.029999999329447746 0.07214251905679703
v -0.014999999664723873 -0.029999999329447746 0.14428503811359406
f 28 29 30
v 0.0 -0.029999999329447746 -5.242566381014058e-09
v -0.014999999664723873 -0.029999999329447746 0.07214251905679703
v -0.029999999329447746 -0.029999999329447746 -5.242566381014058e-09
f 31 32 33
v 0.0 -0.029999999329447746 -5.242566381014058e-09
v 0.0 -0.029999999329447746 0.07214251905679703
v -0.014999999664723873 -0.029999999329447746 0.07214251905679703
f 34 35 36
v 0.014999999664723873 -0.029999999329447746 0.07214251905679703
v 0.0 -0.029999999329447746 0.07214251905679703
v 0.0 -0.029999999329447746 -5.242566381014058e-09
f 37 38 39
v -0.029999999329447746 -0.029999999329447746 0.3847601115703583
v -0.029999999329447746 -0.029999999329447746 0.19238005578517914
v 0.0 -0.029999999329447746 0.14428503811359406
f 40 41 42
v -0.029999999329447746 -0.029999999329447746 0.3847601115703583
v 0.0 -0.029999999329447746 0.14428503811359406
v 0.0 -0.029999999329447746 0.43285512924194336
f 43 44 45
v -0.029999999329447746 -0.029999999329447746 0.5771401524543762
v -0.029999999329447746 -0.029999999329447746 0.3847601115703583
v -0.014999999664723873 -0.029999999329447746 0.43285512924194336
f 46 47 48
v -0.029999999329447746 -0.029999999329447746 0.5771401524543762
v -0.014999999664723873 -0.029999999329447746 0.43285512924194336
v -0.014999999664723873 -0.029999999329447746 0.5049976706504822
f 49 50 51
v -0.014999999664723873 -0.029999999329447746 0.43285512924194336
v -0.029999999329447746 -0.029999999329447746 0.3847601115703583
v 0.0 -0.029999999329447746 0.43285512924194336
f 52 53 54
v 0.0 -0.029999999329447746 0.14428503811359406
v -0.029999999329447746 -0.029999999329447746 0.19238005578517914
v -0.014999999664723873 -0.029999999329447746 0.14428503811359406
f 55 56 57
v 0.0 -0.029999999329447746 0.5771401524543762
v -0.029999999329447746 -0.029999999329447746 0.5771401524543762
v -0.014999999664723873 -0.029999999329447746 0.5049976706504822
f 58 59 60
v 0.014999999664723873 -0.029999999329447746 0.14428503811359406
v 0.029999999329447746 -0.029999999329447746 0.19238005578517914
v 0.0 -0.029999999329447746 0.14428503811359406
f 61 62 63
v 0.029999999329447746 -0.029999999329447746 0.19238005578517914
v 0.014999999664723873 -0.029999999329447746 0.14428503811359406
v 0.014999999664723873 -0.029999999329447746 0.07214251905679703
f 64 65 66
v 0.014999999664723873 -0.029999999329447746 0.07214251905679703
v 0.029999999329447746 -0.029999999329447746 -5.242566381014058e-09
v 0.029999999329447746 -0.029999999329447746 0.19238005578517914
f 67 68 69
v 0.0 -0.029999999329447746 0.43285512924194336
v 0.0 -0.029999999329447746 0.14428503811359406
v 0.029999999329447746 -0.029999999329447746 0.19238005578517914
f 70 71 72
v 0.0 -0.029999999329447746 0.43285512924194336
v 0.029999999329447746 -0.029999999329447746 0.19238005578517914
v 0.029999999329447746 -0.029999999329447746 0.3847601115703583
f 73 74 75
v 0.029999999329447746 -0.029999999329447746 -5.242566381014058e-09
v 0.014999999664723873 -0.029999999329447746 0.07214251905679703
v 0.0 -0.029999999329447746 -5.242566381014058e-09
f 76 77 78
v 0.014999999664723873 -0.029999999329447746 0.5049976706504822
v 0.0 -0.029999999329447746 0.5771401524543762
v 0.0 -0.029999999329447746 0.5049976706504822
f 79 80 81
v -0.014999999664723873 -0.029999999329447746 0.5049976706504822
v 0.0 -0.029999999329447746 0.5049976706504822
v 0.0 -0.029999999329447746 0.5771401524543762
f 82 83 84
v 0.014999999664723873 -0.029999999329447746 0.43285512924194336
v 0.029999999329447746 -0.029999999329447746 0.3847601115703583
v 0.014999999664723873 -0.029999999329447746 0.5049976706504822
f 85 86 87
v 0.029999999329447746 -0.029999999329447746 0.5771401524543762
v 0.014999999664723873 -0.029999999329447746 0.5049976706504822
v 0.029999999329447746 -0.029999999329447746 0.3847601115703583
f 88 89 90
v 0.0 -0.029999999329447746 0.5771401524543762
v 0.014999999664723873 -0.029999999329447746 0.5049976706504822
v 0.029999999329447746 -0.029999999329447746 0.5771401524543762
f 91 92 93
v 0.014999999664723873 -0.029999999329447746 0.43285512924194336
v 0.0 -0.029999999329447746 0.43285512924194336
v 0.029999999329447746 -0.029999999329447746 0.3847601115703583
f 94 95 96
v 0.029999999329447746 0.0 0.14428503811359406
v 0.029999999329447746 -0.014999999664723873 0.14428503811359406
v 0.029999999329447746 -0.014999999664723873 0.07214251905679703
f 97 98 99
v 0.029999999329447746 0.0 0.14428503811359406
v 0.029999999329447746 -0.014999999664723873 0.07214251905679703
v 0.029999999329447746 0.0 0.07214251905679703
f 100 101 102
v 0.029999999329447746 0.014999999664723873 0.14428503811359406
v 0.029999999329447746 0.0 0.14428503811359406
v 0.029999999329447746 0.0 0.07214251905679703
f 103 104 105
v 0.029999999329447746 0.014999999664723873 0.14428503811359406
v 0.029999999329447746 0.0 0.07214251905679703
v 0.029999999329447746 0.014999999664723873 0.07214251905679703
f 106 107 108
v 0.029999999329447746 0.014999999664723873 0.5049976706504822
v 0.029999999329447746 0.0 0.5049976706504822
v 0.029999999329447746 0.0 0.43285512924194336
f 109 110 111
v 0.029999999329447746 0.014999999664723873 0.5049976706504822
v 0.029999999329447746 0.0 0.43285512924194336
v 0.029999999329447746 0.014999999664723873 0.43285512924194336
f 112 113 114
v 0.029999999329447746 0.0 0.5049976706504822
v 0.029999999329447746 -0.014999999664723873 0.5049976706504822
v 0.029999999329447746 -0.014999999664723873 0.43285512924194336
f 115 116 117
v 0.029999999329447746 0.0 0.5049976706504822
v 0.029999999329447746 -0.014999999664723873 0.43285512924194336
v 0.029999999329447746 0.0 0.43285512924194336
f 118 119 120
v 0.029999999329447746 -0.029999999329447746 0.19238005578517914
v 0.029999999329447746 -0.029999999329447746 -5.242566381014058e-09
v 0.029999999329447746 -0.014999999664723873 0.07214251905679703
f 121 122 123
v 0.029999999329447746 -0.029999999329447746 0.19238005578517914
v 0.029999999329447746 -0.014999999664723873 0.07214251905679703
v 0.029999999329447746 -0.014999999664723873 0.14428503811359406
f 124 125 126
v 0.029999999329447746 0.0 -5.242566381014058e-09
v 0.029999999329447746 -0.014999999664723873 0.07214251905679703
v 0.029999999329447746 -0.029999999329447746 -5.242566381014058e-09
f 127 128 129
v 0.029999999329447746 0.0 -5.242566381014058e-09
v 0.029999999329447746 0.0 0.07214251905679703
v 0.029999999329447746 -0.014999999664723873 0.07214251905679703
f 130 131 132
v 0.029999999329447746 0.014999999664723873 0.07214251905679703
v 0.029999999329447746 0.0 0.07214251905679703
v 0.029999999329447746 0.0 -5.242566381014058e-09
f 133 134 135
v 0.029999999329447746 -0.029999999329447746 0.3847601115703583
v 0.029999999329447746 -0.029999999329447746 0.19238005578517914
v 0.029999999329447746 0.0 0.14428503811359406
f 136 137 138
v 0.029999999329447746 -0.029999999329447746 0.3847601115703583
v 0.029999999329447746 0.0 0.14428503811359406
v 0.029999999329447746 0.0 0.43285512924194336
f 139 140 141
v 0.029999999329447746 -0.029999999329447746 0.5771401524543762
v 0.029999999329447746 -0.029999999329447746 0.3847601115703583
v 0.029999999329447746 -0.014999999664723873 0.43285512924194336
f 142 143 144
v 0.029999999329447746 -0.029999999329447746 0.5771401524543762
v 0.029999999329447746 -0.014999999664723873 0.43285512924194336
v 0.029999999329447746 -0.014999999664723873 0.5049976706504822
f 145 146 147
v 0.029999999329447746 -0.014999999664723873 0.43285512924194336
v 0.029999999329447746 -0.029999999329447746 0.3847601115703583
v 0.029999999329447746 0.0 0.43285512924194336
f 148 149 150
v 0.029999999329447746 0.0 0.14428503811359406
v 0.029999999329447746 -0.029999999329447746 0.19238005578517914
v 0.029999999329447746 -0.014999999664723873 0.14428503811359406
f 151 152 153
v 0.029999999329447746 0.0 0.5771401524543762
v 0.029999999329447746 -0.029999999329447746 0.5771401524543762
v 0.029999999329447746 -0.014999999664723873 0.5049976706504822
f 154 155 156
v 0.029999999329447746 0.014999999664723873 0.14428503811359406
v 0.029999999329447746 0.029999999329447746 0.19238005578517914
v 0.029999999329447746 0.0 0.14428503811359406
f 157 158 159
v 0.029999999329447746 0.029999999329447746 0.19238005578517914
v 0.029999999329447746 0.014999999664723873 0.14428503811359406
v 0.029999999329447746 0.014999999664723873 0.07214251905679703
f 160 161 162
v 0.029999999329447746 0.014999999664723873 0.07214251905679703
v 0.029999999329447746 0.029999999329447746 -5.242566381014058e-09
v 0.029999999329447746 0.029999999329447746 0.19238005578517914
f 163 164 165
v 0.029999999329447746 0.0 0.43285512924194336
v 0.029999999329447746 0.0 0.14428503811359406
v 0.029999999329447746 0.029999999329447746 0.19238005578517914
f 166 167 168
v 0.029999999329447746 0.0 0.43285512924194336
v 0.029999999329447746 0.029999999329447746 0.19238005578517914
v 0.029999999329447746 0.029999999329447746 0.3847601115703583
f 169 170 171
v 0.029999999329447746 0.029999999329447746 -5.242566381014058e-09
v 0.029999999329447746 0.014999999664723873 0.07214251905679703
v 0.029999999329447746 0.0 -5.242566381014058e-09
f 172 173 174
v 0.029999999329447746 0.014999999664723873 0.5049976706504822
v 0.029999999329447746 0.0 0.5771401524543762
v 0.029999999329447746 0.0 0.5049976706504822
f 175 176 177
v 0.029999999329447746 -0.014999999664723873 0.5049976706504822
v 0.029999999329447746 0.0 0.5049976706504822
v 0.029999999329447746 0.0 0.5771401524543762
f 178 179 180
v 0.029999999329447746 0.014999999664723873 0.43285512924194336
v 0.029999999329447746 0.029999999329447746 0.3847601115703583
v 0.029999999329447746 0.014999999664723873 0.5049976706504822
f 181 182 183
v 0.029999999329447746 0.029999999329447746 0.5771401524543762
v 0.029999999329447746 0.014999999664723873 0.5049976706504822
v 0.029999999329447746 0.029999999329447746 0.3847601115703583
f 184 185 186
v 0.029999999329447746 0.0 0.5771401524543762
v 0.029999999329447746 0.014999999664723873 0.5049976706504822
v 0.029999999329447746 0.029999999329447746 0.5771401524543762
f 187 188 189
v 0.029999999329447746 0.014999999664723873 0.43285512924194336
v 0.029999999329447746 0.0 0.43285512924194336
v 0.029999999329447746 0.029999999329447746 0.3847601115703583
f 190 191 192
v 0.0 0.029999999329447746 0.14428503811359406
v 0.014999999664723873 0.029999999329447746 0.14428503811359406
v 0.014999999664723873 0.029999999329447746 0.07214251905679703
f 193 194 195
v 0.0 0.029999999329447746 0.14428503811359406
v 0.014999999664723873 0.029999999329447746 0.07214251905679703
v 0.0 0.029999999329447746 0.07214251905679703
f 196 197 198
v -0.014999999664723873 0.029999999329447746 0.14428503811359406
v 0.0 0.029999999329447746 0.14428503811359406
v 0.0 0.029999999329447746 0.07214251905679703
f 199 200 201
v -0.014999999664723873 0.029999999329447746 0.14428503811359406
v 0.0 0.029999999329447746 0.07214251905679703
v -0.014999999664723873 0.029999999329447746 0.07214251905679703
f 202 203 204
v -0.014999999664723873 0.029999999329447746 0.5049976706504822
v 0.0 0.029999999329447746 0.5049976706504822
v 0.0 0.029999999329447746 0.43285512924194336
f 205 206 207
v -0.014999999664723873 0.029999999329447746 0.5049976706504822
v 0.0 0.029999999329447746 0.43285512924194336
v -0.014999999664723873 0.029999999329447746 0.43285512924194336
f 208 209 210
v 0.0 0.029999999329447746 0.5049976706504822
v 0.014999999664723873 0.029999999329447746 0.5049976706504822
v 0.014999999664723873 0.029999999329447746 0.43285512924194336
f 211 212 213
v 0.0 0.029999999329447746 0.5049976706504822
v 0.014999999664723873 0.029999999329447746 0.43285512924194336
v 0.0 0.029999999329447746 0.43285512924194336
f 214 215 216
v 0.029999999329447746 0.029999999329447746 0.19238005578517914
v 0.029999999329447746 0.029999999329447746 -5.242566381014058e-09
v 0.014999999664723873 0.029999999329447746 0.07214251905679703
f 217 218 219
v 0.029999999329447746 0.029999999329447746 0.19238005578517914
v 0.014999999664723873 0.029999999329447746 0.07214251905679703
v 0.014999999664723873 0.029999999329447746 0.14428503811359406
f 220 221 222
v 0.0 0.029999999329447746 -5.242566381014058e-09
v 0.014999999664723873 0.029999999329447746 0.07214251905679703
v 0.029999999329447746 0.029999999329447746 -5.242566381014058e-09
f 223 224 225
v 0.0 0.029999999329447746 -5.242566381014058e-09
v 0.0 0.029999999329447746 0.07214251905679703
v 0.014999999664723873 0.029999999329447746 0.07214251905679703
f 226 227 228
v -0.014999999664723873 0.029999999329447746 0.07214251905679703
v 0.0 0.029999999329447746 0.07214251905679703
v 0.0 0.029999999329447746 -5.242566381014058e-09
f 229 230 231
v 0.029999999329447746 0.029999999329447746 0.3847601115703583
v 0.029999999329447746 0.029999999329447746 0.19238005578517914
v 0.0 0.029999999329447746 0.14428503811359406
f 232 233 234
v 0.029999999329447746 0.029999999329447746 0.3847601115703583
v 0.0 0.029999999329447746 0.14428503811359406
v 0.0 0.029999999329447746 0.43285512924194336
f 235 236 237
v 0.029999999329447746 0.029999999329447746 0.5771401524543762
v 0.029999999329447746 0.029999999329447746 0.3847601115703583
v 0.014999999664723873 0.029999999329447746 0.43285512924194336
f 238 239 240
v 0.029999999329447746 0.029999999329447746 0.5771401524543762
v 0.014999999664723873 0.029999999329447746 0.43285512924194336
v 0.014999999664723873 0.029999999329447746 0.5049976706504822
f 241 242 243
v 0.014999999664723873 0.029999999329447746 0.43285512924194336
v 0.029999999329447746 0.029999999329447746 0.3847601115703583
v 0.0 0.029999999329447746 0.43285512924194336
f 244 245 246
v 0.0 0.029999999329447746 0.14428503811359406
v 0.029999999329447746 0.029999999329447746 0.19238005578517914
v 0.014999999664723873 0.029999999329447746 0.14428503811359406
f 247 248 249
v 0.0 0.029999999329447746 0.5771401524543762
v 0.029999999329447746 0.029999999329447746 0.5771401524543762
v 0.014999999664723873 0.029999999329447746 0.5049976706504822
f 250 251 252
v -0.014999999664723873 0.029999999329447746 0.14428503811359406
v -0.029999999329447746 0.029999999329447746 0.19238005578517914
v 0.0 0.029999999329447746 0.14428503811359406
f 253 254 255
v -0.029999999329447746 0.029999999329447746 0.19238005578517914
v -0.014999999664723873 0.029999999329447746 0.14428503811359406
v -0.014999999664723873 0.029999999329447746 0.07214251905679703
f 256 257 258
v -0.014999999664723873 0.029999999329447746 0.07214251905679703
v -0.029999999329447746 0.029999999329447746 -5.242566381014058e-09
v -0.029999999329447746 0.029999999329447746 0.19238005578517914
f 259 260 261
v 0.0 0.029999999329447746 0.43285512924194336
v 0.0 0.029999999329447746 0.14428503811359406
v -0.029999999329447746 0.029999999329447746 0.19238005578517914
f 262 263 264
v 0.0 0.029999999329447746 0.43285512924194336
v -0.029999999329447746 0.029999999329447746 0.19238005578517914
v -0.029999999329447746 0.029999999329447746 0.3847601115703583
f 265 266 267
v -0.029999999329447746 0.029999999329447746 -5.242566381014058e-09
v -0.014999999664723873 0.029999999329447746 0.07214251905679703
v 0.0 0.029999999329447746 -5.242566381014058e-09
f 268 269 270
v -0.014999999664723873 0.029999999329447746 0.5049976706504822
v 0.0 0.029999999329447746 0.5771401524543762
v 0.0 0.029999999329447746 0.5049976706504822
f 271 272 273
v 0.014999999664723873 0.029999999329447746 0.5049976706504822
v 0.0 0.029999999329447746 0.5049976706504822
v 0.0 0.029999999329447746 0.5771401524543762
f 274 275 276
v -0.014999999664723873 0.029999999329447746 0.43285512924194336
v -0.029999999329447746 0.029999999329447746 0.3847601115703583
v -0.014999999664723873 0.029999999329447746 0.5049976706504822
f 277 278 279
v -0.029999999329447746 0.029999999329447746 0.5771401524543762
v -0.014999999664723873 0.029999999329447746 0.5049976706504822
v -0.029999999329447746 0.029999999329447746 0.3847601115703583
f 280 281 282
v 0.0 0.029999999329447746 0.5771401524543762
v -0.014999999664723873 0.029999999329447746 0.5049976706504822
v -0.029999999329447746 0.029999999329447746 0.5771401524543762
f 283 284 285
v -0.014999999664723873 0.029999999329447746 0.43285512924194336
v 0.0 0.029999999329447746 0.43285512924194336
v -0.029999999329447746 0.029999999329447746 0.3847601115703583
f 286 287 288
v -0.029999999329447746 0.0 0.14428503811359406
v -0.029999999329447746 0.014999999664723873 0.14428503811359406
v -0.029999999329447746 0.014999999664723873 0.07214251905679703
f 289 290 291
v -0.029999999329447746 0.0 0.14428503811359406
v -0.029999999329447746 0.014999999664723873 0.07214251905679703
v -0.029999999329447746 0.0 0.07214251905679703
f 292 293 294
v -0.029999999329447746 -0.014999999664723873 0.14428503811359406
v -0.029999999329447746 0.0 0.14428503811359406
v -0.029999999329447746 0.0 0.07214251905679703
f 295 296 297
v -0.029999999329447746 -0.014999999664723873 0.14428503811359406
v -0.029999999329447746 0.0 0.07214251905679703
v -0.029999999329447746 -0.014999999664723873 0.07214251905679703
f 298 299 300
v -0.029999999329447746 -0.014999999664723873 0.5049976706504822
v -0.029999999329447746 0.0 0.5049976706504822
v -0.029999999329447746 0.0 0.43285512924194336
f 301 302 303
v -0.029999999329447746 -0.014999999664723873 0.5049976706504822
v -0.029999999329447746 0.0 0.43285512924194336
v -0.029999999329447746 -0.014999999664723873 0.43285512924194336
f 304 305 306
v -0.029999999329447746 0.0 0.5049976706504822
v -0.029999999329447746 0.014999999664723873 0.5049976706504822
v -0.029999999329447746 0.014999999664723873 0.43285512924194336
f 307 308 309
v -0.029999999329447746 0.0 0.5049976706504822
v -0.029999999329447746 0.014999999664723873 0.43285512924194336
v -0.029999999329447746 0.0 0.43285512924194336
f 310 311 312
v -0.029999999329447746 0.029999999329447746 0.19238005578517914
v -0.029999999329447746 0.029999999329447746 -5.242566381014058e-09
v -0.029999999329447746 0.014999999664723873 0.07214251905679703
f 313 314 315
v -0.029999999329447746 0.029999999329447746 0.19238005578517914
v -0.029999999329447746 0.014999999664723873 0.07214251905679703
v -0.029999999329447746 0.014999999664723873 0.14428503811359406
f 316 317 318
v -0.029999999329447746 0.0 -5.242566381014058e-09
v -0.029999999329447746 0.014999999664723873 0.07214251905679703
v -0.029999999329447746 0.029999999329447746 -5.242566381014058e-09
f 319 320 321
v -0.029999999329447746 0.0 -5.242566381014058e-09
v -0.029999999329447746 0.0 0.07214251905679703
v -0.029999999329447746 0.014999999664723873 0.07214251905679703
f 322 323 324
v -0.029999999329447746 -0.014999999664723873 0.07214251905679703
v -0.029999999329447746 0.0 0.07214251905679703
v -0.029999999329447746 0.0 -5.242566381014058e-09
f 325 326 327
v -0.029999999329447746 0.029999999329447746 0.3847601115703583
v -0.029999999329447746 0.029999999329447746 0.19238005578517914
v -0.029999999329447746 0.0 0.14428503811359406
f 328 329 330
v -0.029999999329447746 0.029999999329447746 0.3847601115703583
v -0.029999999329447746 0.0 0.14428503811359406
v -0.029999999329447746 0.0 0.43285512924194336
f 331 332 333
v -0.029999999329447746 0.029999999329447746 0.5771401524543762
v -0.029999999329447746 0.029999999329447746 0.3847601115703583
v -0.029999999329447746 0.014999999664723873 0.43285512924194336
f 334 335 336
v -0.029999999329447746 0.029999999329447746 0.5771401524543762
v -0.029999999329447746 0.014999999664723873 0.43285512924194336
v -0.029999999329447746 0.014999999664723873 0.5049976706504822
f 337 338 339
v -0.029999999329447746 0.014999999664723873 0.43285512924194336
v -0.029999999329447746 0.029999999329447746 0.3847601115703583
v -0.029999999329447746 0.0 0.43285512924194336
f 340 341 342
v -0.029999999329447746 0.0 0.14428503811359406
v -0.029999999329447746 0.029999999329447746 0.19238005578517914
v -0.029999999329447746 0.014999999664723873 0.14428503811359406
f 343 344 345
v -0.029999999329447746 0.0 0.5771401524543762
v -0.029999999329447746 0.029999999329447746 0.5771401524543762
v -0.029999999329447746 0.014999999664723873 0.5049976706504822
f 346 347 348
v -0.029999999329447746 -0.014999999664723873 0.14428503811359406
v -0.029999999329447746 -0.029999999329447746 0.19238005578517914
v -0.029999999329447746 0.0 0.14428503811359406
f 349 350 351
v -0.029999999329447746 -0.029999999329447746 0.19238005578517914
v -0.029999999329447746 -0.014999999664723873 0.14428503811359406
v -0.029999999329447746 -0.014999999664723873 0.07214251905679703
f 352 353 354
v -0.029999999329447746 -0.014999999664723873 0.07214251905679703
v -0.029999999329447746 -0.029999999329447746 -5.242566381014058e-09
v -0.029999999329447746 -0.029999999329447746 0.19238005578517914
f 355 356 357
v -0.029999999329447746 0.0 0.43285512924194336
v -0.029999999329447746 0.0 0.14428503811359406
v -0.029999999329447746 -0.029999999329447746 0.19238005578517914
f 358 359 360
v -0.029999999329447746 0.0 0.43285512924194336
v -0.029999999329447746 -0.029999999329447746 0.19238005578517914
v -0.029999999329447746 -0.029999999329447746 0.3847601115703583
f 361 362 363
v -0.029999999329447746 -0.029999999329447746 -5.242566381014058e-09
v -0.029999999329447746 -0.014999999664723873 0.07214251905679703
v -0.029999999329447746 0.0 -5.242566381014058e-09
f 364 365 366
v -0.029999999329447746 -0.014999999664723873 0.5049976706504822
v -0.029999999329447746 0.0 0.5771401524543762
v -0.029999999329447746 0.0 0.5049976706504822
f 367 368 369
v -0.029999999329447746 0.014999999664723873 0.5049976706504822
v -0.029999999329447746 0.0 0.5049976706504822
v -0.029999999329447746 0.0 0.5771401524543762
f 370 371 372
v -0.029999999329447746 -0.014999999664723873 0.43285512924194336
v -0.029999999329447746 -0.029999999329447746 0.3847601115703583
v -0.029999999329447746 -0.014999999664723873 0.5049976706504822
f 373 374 375
v -0.029999999329447746 -0.029999999329447746 0.5771401524543762
v -0.029999999329447746 -0.014999999664723873 0.5049976706504822
v -0.029999999329447746 -0.029999999329447746 0.3847601115703583
f 376 377 378
v -0.029999999329447746 0.0 0.5771401524543762
v -0.029999999329447746 -0.014999999664723873 0.5049976706504822
v -0.029999999329447746 -0.029999999329447746 0.5771401524543762
f 379 380 381
v -0.029999999329447746 -0.014999999664723873 0.43285512924194336
v -0.029999999329447746 0.0 0.43285512924194336
v -0.029999999329447746 -0.029999999329447746 0.3847601115703583
f 382 383 384
v 0.0 -0.029999999329447746 -5.242566381014058e-09
v -0.029999999329447746 -0.029999999329447746 -5.242566381014058e-09
v -0.029999999329447746 0.0 -5.242566381014058e-09
f 385 386 387
v 0.0 -0.029999999329447746 -5.242566381014058e-09
v 0.029999999329447746 0.0 -5.242566381014058e-09
v 0.029999999329447746 -0.029999999329447746 -5.242566381014058e-09
f 388 389 390
v 0.0 0.029999999329447746 -5.242566381014058e-09
v 0.0 -0.029999999329447746 -5.242566381014058e-09
v -0.029999999329447746 0.0 -5.242566381014058e-09
f 391 392 393
v 0.0 -0.029999999329447746 -5.242566381014058e-09
v 0.0 0.029999999329447746 -5.242566381014058e-09
v 0.029999999329447746 0.0 -5.242566381014058e-09
f 394 395 396
v 0.0 0.029999999329447746 -5.242566381014058e-09
v 0.029999999329447746 0.029999999329447746 -5.242566381014058e-09
v 0.029999999329447746 0.0 -5.242566381014058e-09
f 397 398 399
v -0.029999999329447746 0.029999999329447746 -5.242566381014058e-09
v 0.0 0.029999999329447746 -5.242566381014058e-09
v -0.029999999329447746 0.0 -5.242566381014058e-09
f 400 401 402
v -0.029999999329447746 0.0 0.5771401524543762
v -0.029999999329447746 -0.029999999329447746 0.5771401524543762
v 0.0 -0.029999999329447746 0.5771401524543762
f 403 404 405
v -0.029999999329447746 0.0 0.5771401524543762
v 0.0 0.029999999329447746 0.5771401524543762
v -0.029999999329447746 0.029999999329447746 0.5771401524543762
f 406 407 408
v 0.029999999329447746 0.0 0.5771401524543762
v -0.029999999329447746 0.0 0.5771401524543762
v 0.0 -0.029999999329447746 0.5771401524543762
f 409 410 411
v -0.029999999329447746 0.0 0.5771401524543762
v 0.029999999329447746 0.0 0.5771401524543762
v 0.0 0.029999999329447746 0.5771401524543762
f 412 413 414
v 0.029999999329447746 0.0 0.5771401524543762
v 0.029999999329447746 0.029999999329447746 0.5771401524543762
v 0.0 0.029999999329447746 0.5771401524543762
f 415 416 417
v 0.029999999329447746 -0.029999999329447746 0.5771401524543762
v 0.029999999329447746 0.0 0.5771401524543762
v 0.0 -0.029999999329447746 0.5771401524543762
f 418 419 420
