# Generated from upper_arm_L_link_collision.STL
v 0.03208575025200844 -0.004039023071527481 -0.015000023879110813
v -0.004039023071527481 -0.03208575025200844 -0.015000023879110813
v -0.004039023071527481 -0.03208575025200844 -0.12667079269886017
f 1 2 3
v 0.03208575025200844 -0.004039023071527481 -0.015000023879110813
v -0.004039023071527481 -0.03208575025200844 -0.12667079269886017
v 0.03208575025200844 -0.004039023071527481 -0.12667079269886017
f 4 5 6
v -0.004039023071527481 -0.03208575025200844 -0.015000023879110813
v -0.03208575025200844 0.004039023071527481 -0.015000023879110813
v -0.03208575025200844 0.004039023071527481 -0.12667079269886017
f 7 8 9
v -0.004039023071527481 -0.03208575025200844 -0.015000023879110813
v -0.03208575025200844 0.004039023071527481 -0.12667079269886017
v -0.004039023071527481 -0.03208575025200844 -0.12667079269886017
f 10 11 12
v -0.03208575025200844 0.004039023071527481 -0.015000023879110813
v 0.004039023071527481 0.03208575025200844 -0.015000023879110813
v 0.004039023071527481 0.03208575025200844 -0.12667079269886017
f 13 14 15
v -0.03208575025200844 0.004039023071527481 -0.015000023879110813
v 0.004039023071527481 0.03208575025200844 -0.12667079269886017
v -0.03208575025200844 0.004039023071527481 -0.12667079269886017
f 16 17 18
v 0.004039023071527481 0.03208575025200844 -0.015000023879110813
v 0.03208575025200844 -0.004039023071527481 -0.015000023879110813
v 0.03208575025200844 -0.004039023071527481 -0.12667079269886017
f 19 20 21
v 0.004039023071527481 0.03208575025200844 -0.015000023879110813
v 0.03208575025200844 -0.004039023071527481 -0.12667079269886017
v 0.004039023071527481 0.03208575025200844 -0.12667079269886017
f 22 23 24
v 0.03208575025200844 -0.004039023071527481 -0.015000023879110813
v 0.004039023071527481 0.03208575025200844 -0.015000023879110813
v -0.03208575025200844 0.004039023071527481 -0.015000023879110813
f 25 26 27
v -0.03208575025200844 0.004039023071527481 -0.015000023879110813
v -0.004039023071527481 -0.03208575025200844 -0.015000023879110813
v 0.03208575025200844 -0.004039023071527481 -0.015000023879110813
f 28 29 30
v 0.03208575025200844 -0.004039023071527481 -0.12667079269886017
v -0.03208575025200844 0.004039023071527481 -0.12667079269886017
v 0.004039023071527481 0.03208575025200844 -0.12667079269886017
f 31 32 33
v -0.03208575025200844 0.004039023071527481 -0.12667079269886017
v 0.03208575025200844 -0.004039023071527481 -0.12667079269886017
v -0.004039023071527481 -0.03208575025200844 -0.12667079269886017
f 34 35 36
